<?xml version="1.0" encoding="utf-8"?>
<!-- Generator: Adobe Illustrator 26.0.3, SVG Export Plug-In . SVG Version: 6.00 Build 0)  -->
<svg version="1.0" id="Layer_1" xmlns="http://www.w3.org/2000/svg" xmlns:xlink="http://www.w3.org/1999/xlink" x="0px" y="0px"
	 viewBox="0 0 790.1 535.2" style="enable-background:new 0 0 790.1 535.2;" xml:space="preserve">
<style type="text/css">
	.st0{fill:#005500;}
</style>
<path class="st0" d="M128.3,157.2h8.9c1.8,0.1,3.6,0.3,5.3,0.6c1.1,0.2,2.3,0.3,3.4,0.2c1.4,0,2.7,0.5,4.1,0.6
	c2.1,0.3,4.1,0.7,6.2,1.1c3.5,0.7,7,1.7,10.4,2.9c2.3,0.7,4.5,1.7,6.6,2.8l14.2,6.7c3.7,1.6,6.9,4.2,10.2,6.5
	c1.7,1.3,3.6,2.4,5.2,3.8s3.3,2.7,4.8,4.2c2.1,2.1,4.5,3.9,6.4,6.2c2.8,3.2,5.5,6.6,8.2,9.9c4.8,5.7,8.7,12,11.7,18.7
	c0.6,1,1,2,1.5,3c1.4,3.9,2.8,7.7,4.2,11.6c0.3,0.9,0.8,1.7,1.1,2.7c1,3,1.7,6.1,2.3,9.2c0.8,6.1,0.9,12.3,1.4,18.5
	c0,1.7,0.2,3.3,0.5,4.9v4.6c-0.2,1.1-0.4,2.2-0.4,3.3c-0.4,4.1-1.1,8.2-2,12.2c-0.8,3.3-1.4,6.7-2.4,9.9c-0.6,2-1.3,4.1-2,6.1
	c-0.5,1.3-1.2,2.5-1.7,3.8c-1.1,3-2.4,6-4,8.8c-1.3,2.4-2.7,4.8-4.2,7.1c-0.9,2.1-2.6,3.7-3.9,5.7c-2.9,4.5-6.6,8.3-10.2,12.1
	c-0.8,0.8-1.7,1.5-2.5,2.3c-1.6,1.7-3.4,3.1-5.1,4.7c-2.4,2-4.8,3.9-7.4,5.6c-2.9,2-5.9,3.9-9,5.5c-2.4,1.4-5,2.6-7.4,4
	c-4.9,2.7-10.2,4.3-15.5,6.1c-4.1,1.1-8.2,2.4-12.4,3c-3.2,0.6-6.3,0.9-9.6,1c-3.2,0.1-6.3,0.7-9.4,0.8h-5.4c-1,0.1-1.9,0.1-2.9,0
	c-4-1.1-8.2-1.1-12.4-1.8c-3.5-0.6-6.9-1.3-10.3-2.3c-2.9-0.7-5.7-1.8-8.5-2.7c-4.1-1.4-8.1-3-12-5c-3.6-1.9-7.2-4-10.6-6.3
	c-1.2-0.7-2.4-1.5-3.5-2.4l-15.4-13.2c-1.4-1.3-2.6-2.8-3.9-4.1c-1-1.1-1.9-2.2-2.7-3.5c-2.5-3-4.8-6.1-7-9.4
	c-2.2-3.3-4.1-6.7-5.8-10.3c-0.8-1.4-1.6-2.9-2.2-4.5c-1-2.9-2.4-5.6-3.3-8.5c-0.8-2.4-1.3-4.9-2.3-7.3c-0.6-1.6-1-3.3-1.4-5
	c-1.1-5.2-1.8-10.5-2.5-15.8c-0.3-2.4,0.1-4.9-0.3-7.4c-0.3-2.1-0.3-4.3,0-6.4c0.1-1.3,0.2-2.7,0.1-4c0.3-4.1,0.9-8.2,1.7-12.2
	c1.6-6.1,3-12.4,5.1-18.4c0.4-0.9,0.8-1.7,1.3-2.5c2.9-5.7,5.8-11.4,8.7-17.1c1.3-2.2,2.8-4.3,4.5-6.2l5.4-6.8
	c0.6-0.8,1.2-1.5,1.9-2.2c4.5-4,8.9-8,13.4-12c1.3-1.2,2.7-2.4,3.9-3.6c0.5-0.5,1.1-0.8,1.8-1.1c1.3-0.7,2.5-1.6,3.6-2.5
	c1.5-1,3.1-2,4.8-2.8c2.4-1.3,4.8-2.7,7.4-3.8c3.3-1.5,6.7-2.8,10.3-3.8c3.8-1.1,7.6-2.3,11.4-3.2c1.2-0.3,2.4-0.3,3.6-0.6
	c1.5-0.4,3.1-0.7,4.6-0.9C120.5,157.9,124.4,157.6,128.3,157.2 M128.8,160.4c-1.4,0.1-2.8,0.3-4.2,0.5c-4.1,0.4-8.2,0.6-12.3,1.4
	c-5.3,1.1-10.5,2.6-15.6,4.5c-3.8,1.2-7.4,3-11.1,4.4c-1.5,0.7-3,1.5-4.4,2.5c-3.1,1.9-6.3,3.7-9.3,5.9l-8.7,6.8
	c-6.1,5.3-11.5,11.3-16.1,17.9c-2.8,3.8-5.3,7.8-7.6,11.9c-4,7.6-7.1,15.7-9.3,24c-4.3,17.4-4.3,35.7,0.1,53.1
	c1,4.5,2.6,8.7,3.9,13.1c0.4,1,0.9,2,1.4,2.9c1.1,2.9,2.4,5.7,3.9,8.4c1.5,2.5,3.1,5,4.6,7.5c0.8,1.3,1.6,2.5,2.6,3.6
	c2.9,4,6,7.9,9.3,11.6c3.2,3.3,6.6,6.5,10.2,9.3c0.6,0.5,1.3,0.9,2,1.3l18.3,11.6c0.8,0.6,1.6,1,2.4,1.4c2.7,1,5.3,2.2,8,3.2
	c3.6,1.4,7.2,2.6,11,3.4c9.8,2.3,19.9,3.7,29.9,3.2c3.8-0.2,7.5-0.7,11.2-1c3.3-0.3,6.6-0.9,9.8-1.8c4.2-1,8.4-2.2,12.5-3.6
	c5.5-1.8,10.7-4.2,15.8-7c1.5-0.7,2.7-2,4.3-2.6c1-0.5,1.9-1,2.8-1.7c3.2-2.3,6.4-4.5,9.4-7c3.8-3.3,7.3-6.9,10.9-10.5
	c1.5-1.7,2.9-3.4,4.4-5.1c2.1-2.5,4.1-5.2,5.9-7.9c2.8-4.3,5.3-8.8,7.5-13.4c1.1-2.4,2.1-4.9,3-7.5c0.7-1.9,1.2-4,1.5-6
	c1.9-4.6,3.1-9.4,3.7-14.3c0.9-6.7,1.2-13.4,1-20.1c-0.3-8.5-1.7-17-4.3-25.1c-2.5-7.6-5.6-15-9.4-22c-2.4-4.4-5.2-8.6-8.3-12.6
	c-5.9-6.2-11.7-12.4-17.6-18.5c-0.7-0.8-1.5-1.4-2.3-2c-3.5-2.4-6.9-4.9-10.3-7.3c-4.6-2.9-9.5-5.4-14.6-7.5
	c-1.9-0.8-3.8-1.3-5.7-2.1c-2.4-1-4.8-1.8-7.3-2.5c-6.1-1.4-12.2-3.1-18.4-3.9C138.4,160.3,133.6,160.1,128.8,160.4 M126.3,163.3
	c4.9-0.3,9.9-0.2,14.8,0.4c4.7,0.4,9.4,1.1,14,2.1c3.5,1,7.1,1.9,10.5,3.1c1.7,0.6,3.3,1.4,5,1.9c2.7,0.9,5.3,2.1,7.8,3.4
	c8.6,4.1,16.5,9.3,23.8,15.4c3.3,2.8,6.3,5.9,9.2,9.1c3.3,4,6.5,8,9.4,12.2c4.5,6.7,8.2,13.8,11.3,21.3c3.8,9.6,6,19.7,6.4,30
	c0.6,11.8-0.7,23.6-3.9,35c-0.7,2.7-1.6,5.3-2.6,7.9c-0.8,1.8-1.3,3.8-2.1,5.6c-2.1,4.5-4.5,8.9-7.3,13.1c-1.6,2.5-3.4,5-5.3,7.3
	s-3.9,4.8-6.1,7c-3.7,3.8-7.7,7.4-11.8,10.8c-4.1,3.4-8.6,6.4-13.4,9c-3.3,2-6.8,3.8-10.3,5.4c-5.1,2-10.2,4.3-15.7,5.2
	c-4.6,0.8-9.1,2.1-13.8,2.5c-3.5,0.3-7,0.4-10.5,0.5c-4.8,0.1-9.7-0.2-14.5-0.9c-4-0.5-8-1.3-11.9-2.1c-2.6-0.5-5.2-1.3-7.8-2.2
	c-2.2-0.8-4.6-1.4-6.8-2.3c-4.5-1.9-8.8-4-13-6.5c-4-2.3-7.9-4.8-11.6-7.6c-1-0.8-1.9-1.6-2.9-2.3c-2-1.5-3.9-3.1-5.6-4.9
	c-3.8-3.5-7.3-7.3-10.4-11.3c-3.4-4.4-6.4-9.1-9-14c-0.9-1.4-1.7-2.9-2.4-4.5c-0.6-1.7-1.5-3.2-2.2-4.9c-2.6-6-4.5-12.2-5.8-18.5
	c-0.9-4.2-1.6-8.5-2-12.9c-0.5-4.1-0.7-8.2-0.6-12.3c0.1-5.8,0.8-11.6,1.9-17.3c1.2-6.9,3.2-13.6,5.9-20c1.3-2.7,2.5-5.5,4-8.1
	c1.3-2.8,2.8-5.5,4.5-8.1c4-6.5,9.2-12.3,14.5-17.8c1.2-1.3,2.6-2.5,3.7-3.9c3.2-2.8,6.7-5.2,10-7.8c6.4-4.3,13-8.3,20.2-10.9
	c4.3-1.4,8.6-2.8,12.8-4.1C113.1,164.8,119.7,163.7,126.3,163.3 M117.1,166.2c-2.4,0.3-4.7,0.9-7,1.4c-6.6,1.6-13.1,3.8-19.3,6.5
	c-2.2,0.9-4.3,1.9-6.3,3.2c-3.2,1.9-6.4,3.8-9.4,6c-3.5,2.8-7,5.6-10.5,8.4c-2.7,2.6-5.7,5-7.9,8c-2.7,3.5-5.5,6.9-8,10.5
	c-3.3,5.2-6.3,10.7-8.8,16.4c-3.8,8.7-6.4,17.9-7.6,27.4c-0.1,0.6-0.1,1.3-0.2,1.9c-0.2,2-0.3,4-0.5,6c-0.1,1.3,0.1,2.7-0.1,4
	c-0.1,0.5-0.1,1.1,0,1.6c0.2,1.3,0,2.7,0.1,4c0.1,1.2,0.1,2.4,0.2,3.6c0.4,5.5,1.4,11,2.7,16.4c1.2,5.1,2.9,10.1,5,14.9
	c0.8,2.3,1.8,4.5,3,6.6c2.4,4.2,4.8,8.3,7.2,12.5c4,5.7,8.5,11,13.4,15.9c1.7,1.6,3.4,3,5.3,4.2c3.8,2.8,7.6,5.5,11.4,8.3
	c1.6,1.2,3.2,2.4,4.9,3.4c1.1,0.6,2.2,1.2,3.4,1.8c4.5,2.1,9.1,3.9,13.7,5.6c4.9,1.6,9.9,2.8,14.9,3.6c1.3,0.2,2.5,0.4,3.8,0.5
	c0.4,0.1,0.8,0.1,1.2,0.2c7.2,0.9,14.6,1,21.8,0.2c1.8-0.3,3.6-0.5,5.4-0.6c1,0,2-0.1,3-0.4c3-0.8,6.1-1.5,9.1-2.3
	c5.7-1.6,11.2-3.6,16.6-6c5.1-2.4,10.1-5.1,14.8-8.2c2.2-1.7,4.5-3.4,6.7-5.2c1-0.8,2.1-1.5,3.1-2.4s1.9-2.1,3-3
	c2.6-2.2,5-4.6,7.2-7.3c4.2-4.8,7.9-9.9,11.2-15.3c3.2-5.5,5.9-11.3,7.9-17.3c2.1-6.4,3.5-13,4.3-19.7c1-8.6,1-17.3,0-25.9
	c-0.1-0.6-0.2-1.1-0.2-1.7c-0.7-4.7-1.8-9.3-3.3-13.8c-1.1-3.4-2-6.9-3.5-10.1c-1.9-4-4.1-8-6.2-12c-2-3.4-4.3-6.6-6.5-9.9
	c-2.2-3-4.8-5.8-7.3-8.6c-2.3-2.7-4.8-5.2-7.5-7.5c-2.7-2.2-5.4-4.4-8.1-6.6c-6.1-4.6-13.1-8.1-20-11.3c-4.2-1.9-8.5-3.5-13-4.8
	c-4.8-1.3-9.7-2.3-14.7-3c-1.3-0.2-2.6-0.2-3.9-0.4c-2.4-0.3-4.8,0-7.1-0.2c-3.1,0-6.2-0.3-9.4-0.1
	C122.5,165.3,119.8,166,117.1,166.2 M147.7,171.1c1.6,0,3.2,0,4.9,0c-0.2,0.5-0.4,1-0.6,1.6c-0.9,0.1-1.9,0.1-2.9,0.1
	c-0.5,0.1-1,0.1-1.5,0.2c-0.7,0.1-1.3,0.1-2-0.1c0.1-0.4,0.3-0.8,0.5-1.1C146.6,171.3,147.1,171.1,147.7,171.1 M157.8,172.6
	c1,0.5,1.7,1.6,1.8,2.7c0.3,1.6,0.9,3.2,0.4,4.9c-0.5,2-1.8,3.7-3.6,4.7c-2.7,1.5-5.8,2.2-8.9,1.8c-2.6-0.4-5.1-1.5-7-3.3
	c-1-1.2-1.6-2.7-1.7-4.3c-0.2-2.1-0.1-4.6,1.5-6.2c0.3,0.6,0.5,1.2,0.5,1.9c0,0.4-0.1,0.8-0.1,1.2c-0.6,1.9,0.1,4,1.7,5.3
	c2.6,2.1,6.1,2.5,9.4,2.3c1.8-0.2,3.8-0.5,4.9-2s1-3.1,0.9-4.7C157.5,175.5,157.1,174,157.8,172.6 M162.7,175.3
	c0.2-0.8,0.1-1.8,1.1-2c0.7,0.9,1,2,0.8,3.2c-0.3,3.1-1.8,6-1.8,9.2c0,1.7,1.3,3,2.5,4c2.7,2.1,6.3,2.5,9.6,2.6l0.8,0.1
	c0.5,1.1,0.7,2.5,1.9,3.1c1.3,0.8,2.8,0.5,4.2,0.3c0.6,0.8,1,2.4,2.3,2c0.7-0.1,1.3-0.2,2-0.3c-0.1,0.3-0.1,0.7-0.2,1
	c0,1,0.8,1.8,1.8,2c0.9-0.2,1.6-0.8,1.9-1.6c0.6-1.4,0.6-3.1,1.6-4.3c0.9-1.2,2.3-2,3.8-2.2c-0.2,0.8-0.4,1.6-0.8,2.3
	c-0.9,1.8-1.5,3.8-2.9,5.2s-3,2.8-5,2.6c-1.2-0.2-2.2-1.2-2.6-2.4c-0.9,0.2-1.8,0.1-2.6-0.2c-0.7-0.5-1.3-1.3-1.5-2.1
	c-0.3,0-0.7-0.1-1-0.1c-1.3,0.1-2.5-0.2-3.7-0.9c-0.9-0.7-1.3-1.8-2-2.7c-0.7-0.1-1.4-0.2-2.2-0.3c-1.9-0.2-3.7-0.7-5.4-1.4
	c-1.6-0.6-2.9-1.6-4-2.9c-0.8-1.4-1-3-0.6-4.6C161.2,181.7,162.2,178.5,162.7,175.3 M109.5,175.9c0.4-0.3,0.9-0.4,1.4-0.4
	c0.7,0.4,0.1,1.2-0.2,1.7c-1,1.4-2.4,2.4-3.9,3.1C107,178.5,108,176.9,109.5,175.9 M146.9,177.7c0.4-0.9,1.1-1.9,2.2-1.8
	c1.3,0.2,1.7,1.7,2,2.7c-0.7,0.7-1.5,1.2-2.4,1.5C148,179.5,146.8,178.9,146.9,177.7 M90.6,177l1,0.1c0.4,1.1,0.9,2.2,1.6,3.2
	c1.3,2.1,2.4,4.4,4.3,6c1.5,1.2,3.5,1.6,5.3,1c4.8-1.1,8.9-4,12.5-7.1c1.8-1.5,4-3.6,6.6-2.9c0.6,1.6,0.7,3.4,0.1,5.1
	c-0.5,1.6-1.9,2.8-3.5,3.2c-0.7,0.1-1.4-0.1-2-0.5c-0.5-0.6-0.8-1.3-1-2c-1.7,0.8-2.9,2.3-4.5,3.3c-2.5,1.5-5,3.1-7.9,3.6
	c-1.6,0.4-3.3,0.1-4.7-0.8c-2.5-1.9-4.6-4.2-6.3-6.9c-0.9-1.5-2-3-2-4.9C90.3,177.3,90.5,177.1,90.6,177 M119.1,180.1
	c-0.8,0.4-1.5,1-2,1.7l0.8,1c1.4,0,3.2-1,3-2.6C120.4,179.8,119.7,179.7,119.1,180.1 M84.3,180.7c0.7,0.1,1.4,0.4,1.9,0.9
	c0.7,0.8,1.4,1.6,1.9,2.5c1.4,2,3.1,3.8,4.2,6c1.2,2.4,0.8,5.3-1,7.2c-2,2.3-4.9,3.3-7.4,4.7c0,0.6,0.1,1.1,0.1,1.7
	c-1,1-1.6,2.4-2.7,3.2c-0.6,0.3-1.3,0.6-2,0.6c-0.4,0.8-0.8,1.6-1.1,2.5c-0.4,0.5-1.1,0.4-1.6,0.5c0.2-1.3,0.7-2.6,0.6-4
	c0-1.1-0.4-2.2-0.5-3.4c0.3-1.5,1.2-2.8,2.4-3.7c1.6-1.1,3.7,0,5.4-1c1.3-0.6,2.4-1.5,3.6-2.2c1.4-0.9,2.7-2.4,2.6-4.2
	c-0.3-2.1-2-3.6-3.2-5.2C86.1,184.9,84.6,183,84.3,180.7 M78.7,202.6c-0.5,0.6-0.1,1.4,0.2,2c0.8,0,1.6-0.3,2.3-0.8
	c0.4-0.5,0.6-1.2,0.6-1.8C80.7,201.9,79.4,201.7,78.7,202.6 M171.4,184.6c1.2,0.2,2.5,0.4,3.7,0.5c0.6,0,1.2,0.2,1.8,0.4
	c-0.1,0.3-0.2,0.7-0.3,1c-0.5,0.2-1.1,0.3-1.6,0.2c-1.7-0.4-3.5-0.3-5.1-1C170.2,185.2,170.7,184.8,171.4,184.6 M83.2,186
	c0.3-0.4,0.6-0.7,1-0.9c1,0.6,0.7,2,0.3,2.9c-0.8,1.4-1.3,3.3-3.1,3.8C81.4,189.7,82,187.7,83.2,186 M181.7,187.4
	c0.8,0.2,1.5,0.7,1.9,1.4c0.3,2.2-2.9,3.4-4.3,1.9c-0.2-0.2-0.4-0.4-0.6-0.6c0.9-0.4,1.9-0.6,2.9-0.4c-0.4-0.4-1-0.7-1.1-1.4
	C180.9,187.9,181.3,187.7,181.7,187.4 M123.5,189.2c2.4-0.3,4.8-0.4,7.2-0.4c1.8,0,3.6-0.1,5.4,0.1c5.9,0.3,11.8,1.3,17.6,2.9
	c2.9,0.7,5.7,1.7,8.4,2.8l7.5,3.2c7.7,3.7,14.2,9.2,20.4,15c1.8,1.9,3.3,4,5,5.9c2.7,3.3,5.2,6.9,7.4,10.6
	c5.9,10.1,9.4,21.4,10.3,33c0.4,4.9,0.3,9.9-0.3,14.8c-1.7,14.9-7.7,28.9-17.4,40.3c-4.5,5.1-9.6,9.7-15.3,13.6
	c-5.9,4.2-12.3,7.6-19.2,10c-5.3,1.7-10.8,3.1-16.3,4c-6,1.1-12.1,0.8-18.1,0.1c-4.7-0.6-9.4-1.5-14-2.8c-4.7-1.2-9.2-3-13.4-5.3
	c-4.3-2.2-8.3-4.8-12.1-7.8c-3.2-2.4-6.3-5-9-7.9c-6.4-6.6-11.5-14.3-15.1-22.8c-1.6-3.7-3-7.4-4.2-11.3c-0.8-3.2-1.4-6.5-1.8-9.8
	c-0.1-0.4-0.1-0.8-0.2-1.2c-0.1-1.2-0.3-2.4-0.3-3.5c-0.2-2.2-0.3-4.4-0.2-6.6c0-2.6,0.1-5.2,0.4-7.7c0.2-1.7,0.4-3.3,0.7-5
	c0.8-4.3,1.8-8.5,3.1-12.6c0.5-1.6,1.4-3.2,1.9-4.8c0.7-1.8,1.5-3.6,2.4-5.3c1.9-3.6,4-7,6.4-10.3c1.2-1.3,2-2.9,3.2-4.2
	c1-1.1,2-2.2,3.1-3.3c0.3-0.3,0.5-0.7,0.7-1.2c1.8-0.8,2.9-2.4,4.3-3.6c1.1-0.9,2.2-2,3.1-3.2c3.2-1.5,5.8-4.1,9-5.7
	c3.6-2,7.3-3.8,11.1-5.4c5.5-2.1,11.3-3.6,17.2-4.4C122.7,189.3,123.1,189.3,123.5,189.2 M129.9,190.1c-1.4,0.1-2.8,0.3-4.1,0.5
	c-3.6,0.7-7.2,0.9-10.7,1.8c-3.9,1-7.7,2.4-11.5,4c-4.2,1.7-8.2,3.8-11.9,6.3c-2.3,1.7-4.8,3.3-6.9,5.2c-3,2.5-5.8,5.3-8.4,8.2
	c-4.9,5.5-8.9,11.7-11.8,18.4c-3.4,7.5-6.1,15.5-6.6,23.7c-0.4,5.8-0.9,11.6,0,17.4c1.1,7.7,2.7,15.4,6,22.5c1.9,3.9,4,7.6,6.4,11.2
	c2.5,3.8,5.8,7.2,8.8,10.6c3.4,3,6.8,5.9,10.1,8.9c1.8,1.3,3.8,2.4,5.7,3.6c1.7,1.1,3.5,2.1,5.3,3c2.3,1.2,4.7,2.3,7.2,3.2
	c5.2,1.9,10.7,2.9,16,4.1c3.8,0.8,7.7,0.7,11.5,0.7c2.3-0.1,4.6-0.2,6.9-0.3c2.8-0.4,5.6-0.6,8.3-1.3c4.7-1,9.4-2.4,13.8-4.3
	c2.6-1.3,5.3-2.5,7.8-3.8c3.6-2,7-4.3,10.3-6.9c2.9-2.1,5.6-4.5,8-7.2c2.6-2.7,5.1-5.6,7.3-8.7c3.7-5.2,6.7-10.9,9-16.8
	c3-8,4.5-16.4,4.7-24.9c0.1-10.2-1.8-20.3-5.6-29.8c-1.7-3.8-3.6-7.5-5.8-11.1c-2.6-4.5-5.8-8.7-9.3-12.6
	c-6.1-6.8-13.4-12.5-21.5-16.8c-7.7-4.1-16.3-6.4-24.8-7.9C139.4,190.4,134.6,190,129.9,190.1 M186.4,190.7c0.9-0.2,1.7-0.3,2.6-0.5
	c0.2,0.9,0.4,1.7,0.4,2.6c-0.8,0.6-1.8,0.8-2.7,0.6C186.2,192.6,186.1,191.6,186.4,190.7 M75,191.8c0.6-0.3,1.2,0.1,1.6,0.6
	c0.7,1.1,0.7,2.5,0.2,3.7c-0.1,0.6-0.9,0.5-1.3,0.8l-0.3-1.1c0.2-0.5,0.5-0.9,0.7-1.4c-0.6-0.2-1.2-0.3-1.7-0.5
	C74.1,193.1,74.2,192.1,75,191.8 M198,193.5c1,0.1,1.8,0.9,2,1.9c0.1,3.2-0.4,6.4-0.5,9.6c1.6,0.1,3.2-0.2,4.9-0.1
	c2.4,0,4.9-0.2,7.1,0.8c0,0.3,0,0.6,0,0.9c-0.8,0.5-1.7,0.7-2.7,0.8c-1,0.1-2,0.9-3.1,0.6c-0.7-0.2-1.1-0.8-1.8-0.9
	c-1.4-0.2-2.9-0.3-4.4-0.2c-1,1.5-0.7,3.6-2.1,4.9c-2,1.6-4.8,1.2-6.4-0.7c-0.1-0.1-0.2-0.3-0.3-0.4c-1-1.4-0.8-3.3,0.5-4.5
	c1.7-1.4,4.1-0.9,6.1-1.3c0-0.7,0-1.4,0.1-2.2C197.7,199.6,198,196.6,198,193.5 M194.2,207.5c-0.7,0.4-0.9,1.3-0.6,2
	c0.4,0.6,1.1,1,1.8,1.2c0.6-0.4,1.3-0.8,1.6-1.5c0.2-0.8,0.3-1.6,0.4-2.4C196.3,206.9,195.2,207.1,194.2,207.5 M133.6,195.4
	c0.3-0.5,1-0.3,1.6-0.3c0.1,2.4-0.5,4.7-0.4,7c-0.1,1,0.3,2,1.1,2.7c1,0.7,2.1,0.9,3.3,0.7c1.2-0.3,2.1-1.4,2.2-2.7
	c0.4-2.3,0-4.7,0-7.1c0.6,0,1.2,0,1.8,0.1c-0.2,2.6-0.4,5.3-0.9,7.9c-0.6,2.7-4.2,3.9-6.5,2.5c-1.6-1.1-2.4-2.9-2.2-4.8
	C133.7,199.4,133.4,197.4,133.6,195.4 M128.3,195.4l1,0.1c0.4,3.4,1.7,6.6,2.6,9.9c-0.6,0.2-1.4,0.9-1.9,0.2c-0.3-0.8,0-1.6-0.2-2.4
	c-0.3-1.6-0.7-3.2-1.3-4.7c-1.5,2.3-1.5,5.3-2.9,7.7c-0.5-0.3-0.9-0.7-1.2-1.1c-1.4-1.9-2.1-4.3-3.9-6c0,2.7,0.3,5.5,0.8,8.2
	c-0.3,0.1-0.7,0.2-1,0.2c-0.8-3.5-0.8-7.1-1.3-10.6c0.6,0,1.1,0,1.7,0c2,2,2.9,4.9,4.9,6.8c0.8-1.5,1-3.2,1.5-4.8
	C127.5,197.8,127.8,196.6,128.3,195.4 M62.6,195.8c2.9,0.3,5.4,2.2,7.4,4.3c3,2.7,3.3,7.3,0.6,10.3c-0.4,0.4-0.8,0.8-1.3,1.2
	c-0.6,0.6-1.1,1.4-1.2,2.2c-0.4,1.7-0.5,3.4-1,5c-1.1,3.8-2.9,7.4-5.2,10.6c-1.2,2-2.8,3.7-4.7,5c-0.9,0.5-1.9,0.8-2.8,1
	c-0.4,0.1-0.7,0.4-0.7,0.9c-0.2,2.9,1,5.6,1.5,8.5c0.2,1,0.1,2-0.3,3c-0.7,0.4-1.3,1-1.7,1.6c-0.3,0.7-0.3,1.5-0.2,2.2
	c-0.1,0.6-0.4,1-0.9,1.3c-1.3-1-0.5-3-1.7-4.1c-1.5-1.3-2.3-3.3-2.1-5.3c0.3-2.2,2-3.8,3.8-4.8c0-1-0.3-2-0.9-2.9
	c-1.3-1.7-3.5-2.2-5.4-3c-1.2-0.3-2.2-1-2.9-1.9c-0.3-0.6-0.4-1.3-0.2-2c1.3,0.1,2.6,0.6,3.6,1.5c2,1,4.2,2.5,6.6,1.9
	c2.8-0.8,5-2.9,6.8-5c1.6-2,3-4.2,4.2-6.5c1.2-2.3,2-4.9,2.2-7.5c-1.6-0.1-2.9,0.8-4.3,1.4c-0.9,0.5-1.6-0.6-1.7-1.3
	c-0.2-2,0.4-4,1.7-5.6c0.9-1,2.1-2.1,3.6-1.8s1.9,1.9,3,2.7c1.2-1.5,2.4-3.4,1.8-5.4c-0.6-1.3-1.7-2.3-3.1-2.7
	C64.7,199.9,63.7,197.6,62.6,195.8 M62.7,210c-0.3,0.6-0.4,1.3-0.2,2c1.1-0.2,2.2-0.7,3-1.6c0.3-0.4,0.2-1.1-0.2-1.4
	c-0.2-0.1-0.5-0.2-0.7-0.2C63.8,208.8,63,209.3,62.7,210 M50.9,243.1c-0.6,0.9-0.8,2-0.5,3c1.3,0.2,2.6-0.7,2.8-2.1
	c0-0.2,0-0.4,0-0.5C53.1,242.4,51.5,242.4,50.9,243.1 M145.2,198.8c-0.1-1.6,1.7-2.6,3.1-2.5c0.9,0.3,1.8,0.6,2.6,1
	c-0.1,0.6-0.4,1.1-0.7,1.6c-0.5-0.7-1.2-1.2-2-1.6c-0.7-0.2-1.4,0.3-1.6,1c0,0.2,0,0.4,0,0.7c0.2,1.3,1.4,1.9,2.1,2.8
	c0.9,0.8,1.4,2,1.5,3.2c-0.2,1.4-1.3,2.4-2.7,2.4c-1.4,0.3-2.7-0.5-4.1-0.9c0.1-0.8,0.3-1.6,0.5-2.3c1,0.6,1.2,2.4,2.6,2.3
	c0.7-0.1,1.8,0.1,2.1-0.8c0.4-0.9,0.2-2-0.5-2.7C146.9,202,145.2,200.7,145.2,198.8 M60.6,201.2c0.2-1.2,0.8-2.3,1.8-2.9
	c0.4,0.9,0.5,1.9,0.4,2.9c-0.3,1.3-0.6,2.6-1,3.9c-0.5,0-0.9,0-1.3,0C60.2,203.8,60.3,202.4,60.6,201.2 M153.1,204.8
	c0.7-2.1,1.1-4.3,1.9-6.3l1.5,0.5c-0.7,2.9-2.1,5.5-2.7,8.4c-0.2,0.7,0.2,1.4,0.9,1.6c1.7,0.7,3.7,0.8,5.4,0.2
	c-0.2,0.7-0.5,1.3-0.9,1.8c-2.7-0.3-5.4-1.2-7.8-2.5C152.2,207.3,152.7,206.1,153.1,204.8 M204.9,202.8c0-0.5,0.2-1,0.4-1.5
	c0.8-0.1,1.6,0,2.3,0.2c0.3,0.5,0.4,1,0.4,1.6c-0.8,0.8-1.8,1.2-2.9,1.1c-1.3,0-2.6-0.4-3.6-1.3
	C202.5,201.8,203.8,202.6,204.9,202.8 M161.6,212.9c1.7-3.2,3.4-6.4,5.2-9.6c0.5,0.1,0.9,0.4,1.3,0.7c-0.1,0.7-0.6,1.2-0.9,1.8
	c-1.3,2.5-2.7,5.1-4.1,7.6L161.6,212.9 M97.8,205.2c0.5,0,1.2-0.3,1.5,0.3c1.6,2.8,3.4,5.4,5.3,8c-0.3,0.4-0.6,0.8-0.9,1.1
	c-1.7-0.9-2-3-3-4.5c-1.8,0.8-3.5,1.8-5.2,2.9c0.7,1.5,1.7,3,2.5,4.5c-0.2,0.6-0.8,1-1.4,1c-0.3-0.9-0.6-1.8-1.1-2.6
	c-1.5-2.2-3-4.4-4.5-6.5l1.5-0.7c0.8,1.2,1.4,2.5,2.2,3.7c0.8-0.2,1.5-0.6,2.1-1.1c1-0.7,2-1.4,2.9-2.1c-0.6-0.9-1.2-1.8-1.8-2.7
	C97.6,206,97.8,205.6,97.8,205.2 M171.8,206.7l0.7-0.2c0.7,0.9,0.9,2,0.6,3.1c-0.4,2.2-1,4.4-1.3,6.6c2.4-0.7,4.4-2.2,6.7-3.1
	c0.6-0.2,1.2-0.3,1.8-0.3c0.2,0,0.4,0.1,0.4,0.3c0,0,0,0.1,0,0.1c-1.9,2.9-3.5,6.1-5.4,9c-0.7,0-1.3-0.3-1.8-0.8
	c0.5-0.6,1-1.2,1.5-1.9c0.9-1.6,1.9-3.3,2.8-5c-2.9,0.7-5,3.1-7.9,3.6c0.5-2.9,1.7-5.7,1.7-8.7c-1.9,2-3.7,4.2-5.2,6.6
	c-0.4-0.4-0.8-0.8-1.2-1.1c1.9-1.5,3.6-3.4,5-5.4C170.7,208.7,171.3,207.7,171.8,206.7 M54.7,209c0.8-0.2,1.8-0.6,2.7-0.2
	c1.3,1.3,1.8,3.3,1.2,5.1c-0.3,0.1-0.7,0-1,0c-0.2-1.1,0-2.4-0.9-3.2c-0.7,0.4-1.5,0.9-2.3,0.6C54.2,210.5,54.4,209.7,54.7,209
	 M209.5,209.7c0.9-0.7,2-1.1,3.1-1c0.1,0.5,0,0.9-0.3,1.3c-1,1.3-2.1,2.4-3,3.7c-1.3,0-2.5,0.6-3.2,1.6c-0.6,0.8-1.4,1.5-2.4,1.9
	c-1.3,0.7-2.7,1.3-4.1,1.7c0-0.1-0.1-0.4-0.1-0.6c0.9-1.2,2-2.2,3.1-3.1C204.8,213.2,207.1,211.4,209.5,209.7 M71.2,210.9
	c0.7-0.5,1.7-0.7,2.5-0.5c0.7,0.7,1,1.7,0.8,2.6c-0.8,0.8-2,0.7-3,0.7c-0.3-0.6-0.5-1.2-0.7-1.8C71,211.5,71.1,211.2,71.2,210.9
	 M126.7,211.6c1.5,0.6,2.4,2,3.6,3c0.5-0.5,1.2-1,1.9-1.3c0.6,0.5,1.4,0.8,1.5,1.6c0.1,0.8,0.8,1.3,1.6,1.3c1.1,0.8,0.9,2.3,1.9,3.1
	c0.3-0.1,0.7-0.3,1-0.4c0.7,0.6,1.1,1.5,1.1,2.4c-0.3,0.6-0.5,1.2-0.6,1.9c0.8-0.2,1.6-0.1,2.3,0.4c-0.4,1.6-1.2,3.1-2.2,4.4
	c-1.4,1.9-2,4.3-3.7,6c-1.2-1.8-2.4-3.6-3.6-5.4c-0.4-0.5-0.9-0.9-1.4-1.3c-0.5-0.5-0.9-1.1-1.1-1.8c-1.9-1.3-3.9-2.4-5.8-3.6
	c-0.5-0.2-0.4-0.9-0.5-1.4c0-1.1-0.9-2-1.1-3.1c0.2-0.5,0.5-1,0.7-1.5c-0.5-0.2-1-0.3-1.5-0.4c-0.1-0.4-0.4-0.9,0-1.2
	c1.1-1.4,3.1-1.4,4.8-1.3C125.8,212.4,126.2,212,126.7,211.6 M126.1,216.4c0.6,1.2,2.1,1.2,3,2.1c1,1.2,1.9,2.4,2.8,3.6
	c0.8,0.9,1.5,1.9,2.1,2.9c0.4,0.8,1,1.5,1.6,2.2c0.2-0.8,0-1.7-0.4-2.5c-0.9-1.5-2.5-2.4-3.3-4c-0.3-0.8-0.8-1.5-1.4-2
	C129.2,217.6,127.7,216.8,126.1,216.4 M191.3,213.2c0.8-0.2,1.7-0.2,2.6,0c1.1,0.4,2.3,0.6,3.5,1c-0.1,0.4-0.1,0.8-0.2,1.3
	c-1.8,0.4-3.6,0-5.1-1c-0.3-0.3-0.6-0.7-0.8-1.2 M69.1,214.3c0.7-0.7,1.8-0.9,2.7-0.5c0.4,0.7,0.7,1.5,0.7,2.4c-1,0.4-2,0.6-3,0.7
	C69.3,216,69.2,215.2,69.1,214.3 M84.4,214.9c0.7-0.8,1.8-0.7,2.8-0.7c1.2,0.6,1.9,1.8,1.8,3.1c-0.1,0.8,0.7,1.3,1.4,1.5
	c1.5,0.5,3,0.8,4.5,1.3c-0.3,0.4-0.4,0.9-0.8,1.1c-2,0.1-3.7-1.3-5.7-1.6c-0.6,0-1.1,0.1-1.7,0.3c0.6,1.9,2.6,2.8,3.7,4.4
	c-0.4,0.5-0.8,1-1.2,1.4c-0.4-0.4-0.7-0.9-0.9-1.4c-0.7-1-1.5-2-2.4-2.8c-1.3-1.4-2.6-2.8-3.9-4.2C82.9,216.6,83.7,215.8,84.4,214.9
	 M84.9,215.4c-0.2,0.5-0.7,1-0.6,1.6c0.2,1.1,1,2,2,2.4c0.6-0.3,1.1-0.8,1.4-1.4c0.2-0.8,0-1.6-0.6-2.1
	C86.4,215.5,85.7,215.4,84.9,215.4 M206.1,216.9c2.8-0.6,5.7,0.4,7.6,2.5c-0.7,0.5-1.6,0.7-2.4,0.6c-1.6-0.2-2.9-1.3-4.3-2
	C206.5,217.9,206.3,217.3,206.1,216.9 M107.8,218.9c1.6-0.4,3.2,0.4,4.7,0.8c0.8-0.9,2.1-1.1,3.2-0.5c0.9,0.5,1.7,1.3,2.7,1.8
	c0.4-0.5,1-0.6,1.6-0.5c1.6,0.3,2.9,1.6,3.1,3.2c0.6-0.2,1.3-0.3,2-0.3c0.4,0.8,0.9,1.4,1.5,2c0.6,0.4,1.3,0.5,1.8,1
	c0.7,0.7,1,1.7,1.7,2.3s1.7,1.2,1.9,2.2c0.3,0.7,0.8,1.3,1.5,1.7c0.2,2.7-1.2,5.3-0.7,8c0.7-1.5,0.7-3.1,1.1-4.7
	c0.3-1.2,1.7-1.7,2.4-2.6c1.7-2.4,2.9-5.1,4.7-7.4c1.3-1,2.6-1.9,3.9-2.8c0.8-0.6,1.8-0.5,2.7-0.9c0.8-0.4,1.6-1,2.4-1.4
	s1.6,0.3,2.4,0.6c1.3-1.1,3-1.7,4.7-1.7l0.3,0.3c0,0.3,0.1,0.6,0.1,0.9c2.2,0.2,4.5,0.2,6.7,0.3c0,0.4-0.2,0.9-0.4,1.3
	c-1.1,0-2.3,0.2-3.4,0.6c1,0.3,2.1,0.5,3.1,0.5c1.5,0.3,3,0.8,4.4,1.6c0.7,0.5,1.1,1.4,0.9,2.3l-2.2,0.2c-0.2,0.7-0.4,1.4-0.6,2.1
	c-1.3,0-2.6,0.1-3.9,0.1c-0.2,0.6-0.4,1.2-0.7,1.7c-1.4,0.1-2.8-0.3-4.1-1c-0.5,0.9-0.5,2.1-1.5,2.5c-1.1,0.4-2.3,0.6-3.5,0.5
	c-0.1,0.7-0.2,1.4-0.4,2c-1.6,0.9-3.3,1.4-4.9,2.2c-0.5,0.3-0.3,0.9-0.4,1.4c-0.3,0.4-0.6,0.8-1.1,1c-1.6,1-3.4,1.8-5.1,2.8
	c-1.1,0.6-2.1,1.4-2.8,2.5c-0.5,0.9-0.8,2-0.9,3c-0.9-0.5-1.7-1.3-2.2-2.2c-1.6,1.2-3.6,2.3-4.3,4.3c-0.6,1.7,0.4,3.4,1.1,4.9
	c0.7,1.3,0.6,2.8,1,4.2c0.3,1,0.4,2,0.3,3.1l-1.1-0.1c0.4,0.6,1.1,1,1.8,1.2c0.9,0.2,1.9,0.8,1.9,1.8c0.2,4.3-0.6,8.6-0.3,12.9
	c0,1.2,0.5,2.4,0.4,3.6c-0.1,1.5-0.1,3-0.1,4.5c0,0.7-0.5,1.3-0.6,2c-0.2,1.7-0.2,3.5-0.1,5.3c-1.3-0.7-2.4-1.7-3.3-2.8
	c-0.7-1.4,0-3,0-4.4c0.1-3.2,0.2-6.4,0.3-9.5c0.1-3.2,0.8-6.4,0.2-9.5c-0.2-1.2-0.9-2.2-1.8-3c0-1-0.1-2-0.1-2.9
	c0.6,0.3,1.2,0.6,1.8,0.9c-0.7-0.6-1.3-1.4-1.8-2.2c-0.4-0.8-0.7-1.6-0.9-2.5c-2,0-4-0.1-5.9-0.3c-0.3,0.6-0.7,1.2-1.2,1.7
	c-1.2,0.3-2.4,0.3-3.6,0c-0.6,0.7-1.2,1.5-1.8,2.2c-0.8-0.2-1.2-1-1.7-1.5c-0.4,0.4-0.7,1-0.9,1.6c-1,0-1.9-0.2-2.8-0.6
	c-1.5,0.6-3.2,0.8-4.8,0.6c0.5-1.5,1.4-2.9,2.7-3.9c2.7-2.3,5.9-3.8,9.4-4.4c3-0.6,6.2,0,8.8,1.7c1.1,0.7,2.2,1.5,3.4,2.1
	c-0.1-0.9-0.5-1.6-1.1-2.3c-1.2-0.9-2.5-1.6-3.9-2c-1.6-0.7-3.3-1-5-1c-0.9,0.2-1.7,0.4-2.5,0.7c-0.9,0-1.7-0.2-2.5-0.6
	c-0.4,0.7-0.8,1.5-1.6,1.7c-0.5-0.1-1-0.5-1.3-0.9c-0.3,0.8-0.9,1.4-1.6,1.9c-1.1,0.3-2.2,0.3-3.3,0.7c-0.8,0.4-1.7,0.8-2.6,1.1
	c-1.2,0.2-2,1.5-3.1,2c-0.5,0.3-1.2,0.2-1.6-0.3c-0.3-0.7-0.2-1.5,0.2-2.1c0.8-1.1,1.7-2.2,2.7-3.2c2-2.4,4.8-4.2,7.9-5
	c2.7-0.8,5.6-1,8.4-0.5c0.4,0.1,0.8,0.1,1.3,0l-1.3-1.3c-1.5,0-2.9,0.2-4.4,0.1c-0.5-0.5-1-1-1.5-1.6c-1.2,0.3-2.3,0.6-3.5,0.9
	c-0.3-0.5-0.7-1-1-1.5c-0.7,0.8-1.5,1.4-2.5,1.7c-0.7,0.2-1.4-0.2-2.1,0c-0.6,0.2-1.2,0.6-1.7,1c-0.8-0.2-1.5-0.6-2.1-1.2
	c-0.5,0.6-1.1,1.1-1.8,1.5c-0.6,0.1-1-0.5-1.6-0.8c-0.6,1.3-1.5,2.5-2.4,3.5c-0.7,0.1-1.5-0.2-2-0.7c-0.7,1-1.7,1.9-2.4,2.9
	c-0.6-0.2-1.1-0.5-1.4-1c-0.6,1.1-1,2.4-2.1,3.1c-0.8,0.4-1.7,0.4-2.5,0c-0.3-1.3-0.3-2.5,0-3.8c0.3-1,0.3-2,0.2-3.1
	c-0.1-0.7,0.1-1.4,0.5-2c1-0.9,2.2-1.7,3.4-2.3l-2.6-1.1c1.1-2.4,4-2.6,6.3-3.2c-0.8-0.5-2-0.6-2.3-1.6c1.6-0.8,3.4-1.1,5.2-1.1
	c-0.2-0.4-0.7-0.8-0.7-1.2c0.8-0.7,1.8-1.1,2.8-1.3c1-0.3,2.1-0.5,3.1-0.6c1.5-0.1,3-0.3,4.5-0.7c0.3-0.1,0.6-0.3,0.9-0.5
	c-1.1-0.5-2-1.4-2.7-2.4c-1.7,0.7-3.5,1.1-5.4,1c-0.6-0.1-1.2-0.4-1.2-1c0.1-0.8,0.9-1.2,1.4-1.6c0.9-0.7,1.9-1.4,2.9-1.9
	c1-0.5,2.1-0.8,3.2-1c0.6-0.1,1.1-0.2,1.7-0.4c-1-0.5-2.1-0.8-3.3-1c-0.6-0.1-1.1-0.4-1.5-0.8c-0.1-0.8,0.3-1.6,0.9-2
	c1.5-0.6,3.2-0.6,4.7,0.2C107,220.3,106.9,219.1,107.8,218.9 M110.2,224.6c1.9,0.9,4,1.2,6,2.2c2.3,1.2,4.3,2.7,6.1,4.6
	c1.8,1.9,3.4,3.9,5.1,5.8c0.9,0.9,1.1,2.3,2.3,2.9c-0.2-1.7-0.9-3.2-2-4.4c-1.2-1.6-2.5-3.1-3.9-4.6c-1.3-1.4-3.1-2.3-4.5-3.5
	c-0.9-0.8-1.9-1.4-3-1.8C114.3,225,112.2,223.7,110.2,224.6 M157.6,226.6c-2,0.4-4,1.1-5.9,1.9c-4.1,1.8-7.9,4.2-11.3,7.1
	c-1.2,1-2.6,2.3-2.3,4c1.4-0.9,2.3-2.4,3.6-3.5c2.3-2.1,4.9-3.9,7.7-5.4c3.7-2,7.7-3.3,11.8-4C160,226.4,158.7,226.3,157.6,226.6
	 M106.1,232.3c0.9,0.5,1.9,1,2.9,1.3c2.3,0.9,4.3,2.4,6,4.2c0.2,0.3,0.5,0.4,0.8,0.6c1.1,0.4,2.3,0.7,3.4,1.1
	c-0.2-0.5-0.3-1.1-0.4-1.7c-1.1-0.2-2.2-0.7-3-1.4c-0.4-0.5-0.7-1.1-0.9-1.7c-1.1-0.2-2.3-0.4-3.4-0.7c-0.8-0.2-1-1.1-1.4-1.8
	c-1.1-0.1-2.2-0.1-3.3-0.2C106.5,231.9,106.3,232.2,106.1,232.3 M96.8,241.2c-1,0.6-1.9,1.2-2.8,2c-1.5,0.9-2.7,2-3.8,3.4
	c3.4-2.2,6.8-4.7,10.6-6.2c2.3-0.9,4.9-1,7.3-1.5c-0.9-0.3-1.9-0.5-2.9-0.4C102.3,238.8,99.4,239.7,96.8,241.2 M121.6,241.5
	c1.1,0.5,2.2,1,3.4,1.3l1.2,0.5c0.9,0.4,1.9,0.9,2.9,0.5C126.8,242.6,124.2,241.8,121.6,241.5 M122.5,248l0.3,0.5
	c1.5,0.7,3,1.3,4.5,2.1c-0.6-0.5-1.2-1.1-1.8-1.6C124.6,248.4,123.5,248.1,122.5,248 M48.3,219.7l1-0.4c0.8,0.9,1,2.1,0.5,3.2
	c-0.6,1.6-1,3.2-1.5,4.8c-0.3,0.1-0.7,0.2-1,0.3c-0.7-1.5-0.6-3.2,0.1-4.7C47.8,221.8,48.1,220.8,48.3,219.7 M201,220.9
	c1.2-0.2,2.2,0.6,3.1,1.2c0.5-0.4,1.1-0.7,1.7-0.9c1.2-0.2,2.4,0,3.5,0.4c1.7,0.7,2.7,2.4,2.6,4.2c-0.1,0.8-0.3,1.7-0.6,2.4
	c0.9,0.4,1.9,0.7,2.8,1c1.2-1.7,3.1-2.7,4.6-4.2c0.5-0.7,1.3-1.2,2.1-1.6c0.8-0.2,1.6-0.1,2.3,0.4c-0.2,0.8-0.7,1.5-1.3,2
	c-2.7,2.6-6.1,4.4-8.5,7.4c-0.8,1-1.1,2.3-0.8,3.5c0.5,1.6,1.1,3.2,2,4.6c1.4,2.6,3.1,5,5.1,7.2c0.4-0.5,0.8-1,1.2-1.5
	c1.5-0.1,3-0.4,4.4,0.2c1.4,0.5,2.4,1.6,3.1,2.9c0.6,0.9,0.7,2,0.4,3c-0.1,0.5-0.7,0.5-1.2,0.6c-0.4-0.2-1.1-0.1-1.2-0.7
	c-0.2-1.3-0.1-2.8-1.2-3.6c-1.2-1.1-3.6,0.1-3.2,1.8c0.7,2.1,2.7,3.4,3.4,5.5h-2.9c-0.7-0.9-1.2-2-2-2.8c-1.8-2-3.3-4.2-5-6.1
	c-2-2.3-3.6-4.7-5-7.4c-0.8-1.7-1.4-3.6-0.8-5.5s2.1-2.9,3.2-4.3c-2.1-1-4.6-1.1-6.8-2c-0.8-0.3-1.5-0.9-1.9-1.7
	c-0.5-0.8-0.3-1.9-0.9-2.7s-1.3-1.2-1.9-1.9C201.2,221.8,201,221.3,201,220.9 M206.5,223.7c0,1.3,0.7,2.6,1.8,3.4
	c0.5-0.7,0.8-1.6,0.6-2.4c-0.2-1-1-1.8-2-2C206.8,223,206.6,223.4,206.5,223.7 M76.3,225.4c3.8,0,7.5,1.4,11.4,1.1
	c0,0.9-0.5,1.7-1.2,2.2c-1.1-0.9-2.5-1.4-3.9-1.5c-0.8,1.1-1.7,2.1-2.6,3.1c0.6,1.3,1.4,2.6,2.3,3.7c-0.2,0.4-0.3,0.8-0.5,1.2
	c-0.7-0.6-1.1-1.3-1.4-2.2C79,230.5,77,228.3,76.3,225.4 M78.1,226.8c0.2,0.9,0.6,2,1.5,2.4c0.9,0,1.2-1,1.5-1.7
	C80.2,227.2,79.1,226.9,78.1,226.8 M191.9,228.4c0.3-0.3,0.6-0.5,1-0.6c0.2,0.5,0.4,1,0.6,1.5c-1.6,1.3-3.6,1.9-5.3,3
	c-1.1,0.6-1.9,1.7-1.9,3c0.2,1.6,1.4,3.4,3.2,3.1c2.7-0.4,4.4-3,7.1-3.6l0.7,1.4c-1.4,0.5-2.7,1.2-3.9,2c-1,0.8-2.1,1.3-3.4,1.4
	c-1.8,0.1-3.4-0.9-4.2-2.5c-0.7-1-0.9-2.3-0.6-3.5c0.4-1,1.1-1.8,2-2.3C188.8,230.4,190.5,229.6,191.9,228.4 M222,228.2
	c1.1,0,2.4-0.1,3.2,0.9c0.8,1,1.6,1.9,2.5,2.8c0.6,0.5,0.9,1.2,1,1.9c-1.4,0.1-2.7-0.5-3.6-1.5C223.8,231.1,222.8,229.7,222,228.2
	 M218.2,230.3c0.9-0.6,1.9-0.9,3-1c0,0.6-0.1,1.3-0.3,1.9l1.5-0.2c0,0.5,0.1,0.9,0.3,1.4c0.6-0.2,1.2-0.1,1.8,0.1
	c-0.3,0.7-0.6,1.6-1.4,1.9c-0.7,0.3-1.6,0.1-2.2-0.4c-1-0.7-2-1.5-2.7-2.5V230.3 M160.2,232.8c1,0,2,0.2,3,0.5
	c0.6,0.2,1.1-0.2,1.7-0.1c1.5,0.3,3.1,0.7,4.5,1.2c-0.2,0.8-0.4,1.5-0.8,2.1c1.8,0,3.6,0.6,5.1,1.7c0.4,0.4,0.6,0.9,0.8,1.4
	c-1.3,0-2.5,0-3.8,0c1.6,0.8,3.5,0.4,5.1,1.2c1.1,0.7,2.1,1.5,3,2.4c-0.2,0.7-0.5,1.3-0.8,1.9c1.8,0.7,3.4,2,4.4,3.6
	c0.5,0.9-0.4,1.7-1,2.2c0.4,1.8,0.9,3.5,1.4,5.3c0.2,0.9,0,1.8-0.6,2.5c-1-0.4-1.4-1.5-2.2-2.2c-0.9,1.4-0.3,3.2-0.9,4.7
	c-0.3,0.8-1,1.7-1.9,1.6c-0.7-0.2-1.3-0.7-1.6-1.5c-0.5-1.4-0.6-2.8-0.4-4.2c0.4-0.9,0.5-1.9,0.3-2.8c-0.9,1.1-0.5,2.6-1.4,3.6
	c-0.6,0.7-1.5-0.1-1.9-0.7c-0.9-1.8-0.8-3.8-0.8-5.8c-0.5,0.6-1.2,1.8-2.2,1.2s-0.6-2.1-0.7-3.1c-0.9,0.1-1.8-0.1-2.5-0.7
	c-1.2-1.1-2.1-2.4-2.7-3.9c-0.4,0.5-0.9,1-1.4,1.3l-3.4-3c-0.9,0.3-1.8,1-2.8,0.8c-1.4-0.3-2.8-0.7-4.2-0.9
	c-1.1,0.7-2.4,1.2-3.8,1.3c-2.5,0.3-3.8,2.9-6.3,3.4c-1.2,0.2-2.4,0.2-3.6-0.2c0.1-0.7,0.3-1.3,0.7-1.9c0.8-0.9,1.7-1.5,2.8-2
	c1.6-0.8,3.1-1.6,4.6-2.6c1.8-1.2,3.2-2.9,5.1-3.9c1.4-0.8,2.6-1.9,4-2.7C156.7,233.7,158.4,233.1,160.2,232.8 M157.5,240.2
	c1.1-0.1,2.2-0.2,3.3-0.3c1.7,0,3.4,0.4,5,1.1c1.9,1,3.8,2.2,5.5,3.6c1.6,1.3,3.1,2.8,4.4,4.4c1.1,1.6,2.1,3.3,3,5
	c0.1-0.8,0-1.5-0.3-2.3c-1-2.2-2.5-4.1-4.2-5.8c-1.4-1.5-3-2.7-4.7-3.8c-1.1-0.6-2.3-1.1-3.3-1.9c-1.1-0.7-2.3-1.1-3.5-1.3
	C160.9,238.8,158.8,238.9,157.5,240.2 M70.5,234.8c0.5-0.3,1-0.4,1.5-0.4c-0.2,0.9-1.1,1.2-1.6,1.9c-1,1-1.4,2.4-1.1,3.8
	c0.8,2.4,3.3,3.9,5.8,3.3c1.9-0.6,3.3-2.1,3.7-4c0.2-0.7,0-1.4-0.5-1.9c-1-0.7-2.3-0.7-3.4-1.2c0.3-0.4,0.4-1.4,1.1-1.1
	c1.3,0.6,2.9,0.8,4.1,1.8c-0.4,1.8-0.4,3.6-1.4,5.2c-1,1.6-2.7,2.6-4.5,2.8c-3.1,0.2-5.8-2.2-6-5.3c0-0.1,0-0.3,0-0.4
	C68.2,237.5,69.1,235.9,70.5,234.8 M41.2,238.1c0.8-0.3,1.7,0,2.2,0.6c0.8,0.9,1.2,2.1,1.2,3.4c0,1.1-0.8,2.2-1.9,2.5
	c0-0.7,0-1.3-0.1-2c0-0.7,0-1.5-0.1-2.2c-0.6,0.2-1.2,0.5-1.1,1.2c-0.4,0.1-0.8,0.2-1.2,0.3c-0.3-0.4-0.7-0.8-0.7-1.3
	C39.5,239.6,40.2,238.5,41.2,238.1 M191.5,240.8c2.5-0.7,4.9-1.9,7.5-2.2c-0.4,1.6-1,3.1-1.8,4.6c-0.8,1.5-1.3,3.3-2.6,4.5
	c-0.4,0.3-0.4,0.9-0.5,1.3c0.8-0.2,1.5-0.4,2.3-0.7c1.8-0.7,3.6-1.4,5.3-2.2c0.2,0.4,0.4,0.8,0.6,1.3c-3.2,1.3-6.5,2.5-9.8,3.7
	c-0.5-1.8,0.4-3.4,1.3-4.9c1.2-1.9,2.1-3.9,3-5.8c-2.6,0.2-4.9,1.7-7.4,2.3c-0.1-0.4-0.2-0.8-0.2-1.2
	C189.9,241.2,190.7,240.9,191.5,240.8 M225.4,242.8c0.7-0.2,1.6-0.1,2.2,0.3c1,0.8,2,1.6,3.1,2.4c0.5,0.5,0.8,1.2,0.8,1.9
	c-0.7,0-1.4,0-2.1,0c-0.7-0.1-1.1-0.8-1.6-1.2c-0.9-1-2.1-1.5-2.7-2.8L225.4,242.8 M65.6,246.3c0.2-0.5,0.3-1,0.5-1.5
	c3.1,1,6.2,2,9.4,3.1c0.1,0.6,0.3,1.1,0.4,1.7c-0.9-0.2-1.7-0.9-2.6-1.1C70.7,247.7,68.1,247,65.6,246.3 M147.2,246.3
	c1.1-0.4,2.3-0.6,3.4-0.7c1.9-0.2,3.8-0.2,5.7-0.1c3,0.4,5.7,1.9,7.5,4.3c0.8,1,1.8,2,2.8,2.8c-0.1,1.2,0.2,2.4,0.9,3.5
	c0.4,0.5,0.2,1,0.2,1.6c-1.9-0.2-2.6-2.3-4.3-3c-0.8-0.3-1.7-0.5-2.6-0.4c-1.4,0-2.7-0.3-4-0.9c-0.5-0.2-0.9-0.6-1.1-1
	c-0.8-0.3-1.6-0.4-2.5-0.5c-0.8,0-1.6,0-2.3-0.1c-0.7-0.2-1.2-0.9-1.9-1c-1.3-0.3-2.8-0.9-4.1-0.1c-1.5,0.7-3.2,0.8-4.7,1.5
	c-0.9,0.5-1.6,1.4-1.8,2.5c2.5-1.5,5.5-2.1,8.4-1.7c2.3,0.4,4.6,1.2,6.6,2.4c0.7,0.4,1.3,0.9,1.7,1.6c0.5,1,0.5,2.1,1,3.1
	s1.6,1.6,2.1,2.6c0.3,0.6,0.4,1.3,0.4,2c-1.2-0.3-2.3-0.9-3.2-1.7c-1-0.8-2.4,0.1-3.4-0.6c-0.6-0.5-1-1.3-1.1-2.1
	c-0.6,0.9-1.8,1.2-2.8,0.6c0,0-0.1-0.1-0.1-0.1c-0.6,0.1-1.3,0.2-1.9,0.2c-0.8-0.8-1.8,0.1-2.7,0l-1-1.4c-0.8,0.4-1.7,0.5-2.6,0.2
	c-1.1,2.1-1.9,4.3-2.1,6.7c-0.1,1.2,0,2.4,0.1,3.5c0.3,8.3,0.7,16.7,1,25c-1.5-0.5-2.6-1.8-2.9-3.4c-0.1-1.7-0.2-3.5-0.1-5.2
	c0.2-3.3,0-6.7,0.2-10c0.1-2.4,0-4.8,0.2-7.1c0-3.6,0.4-7.5,2.5-10.6c0.6-1,1.5-1.8,2.6-2.4c1.2-0.5,2.5-0.5,3.7-1
	c-1.4-0.7-3-0.6-4.3,0.2c-1.9,1.2-3.3,3.1-4,5.2c-0.3,0.8-0.7,1.5-1.3,2.1c0-1.6,0.2-3.3,0.6-4.9c0.4-1.7,0.5-3.5,1.4-5
	c0.7-1.2,1-2.5,1-3.9c1.2,0.3,2.4,0.3,3.6,0.2c1.2-0.2,2.3-0.7,3.3-1.4c0.7-0.5,1.2-1.4,2.1-1.8 M134,248c0.6,0.8,1.1,1.7,1.7,2.4
	c0.6-0.2,1.2-0.1,1.7,0.2c-0.3,1.9-1.9,3.3-2.2,5.2c-0.5,2.2-0.3,4.4-0.6,6.6c0,0.5-0.4,0.6-0.8,0.8c-0.5-2.4-0.3-5-0.9-7.4
	c-0.2-0.7-0.5-1.4-1-2.1c-0.4-0.8-0.6-1.6-0.6-2.5c0.5-0.2,1.1-0.2,1.5,0c-0.1-0.6-0.1-1.3-0.1-1.9L134,248 M72.7,251
	c1,0.2,1.8,0.9,2.1,1.9c0.6,2.2-0.1,4.5-0.6,6.6c-1.9-0.9-4-0.6-6-0.8c-1.6-0.1-3.2,0-4.8-0.3c-0.4-0.5,0.2-1.1,0.4-1.5
	c2.8,0.3,5.6,0.6,8.4,0.6c0.9,0,1.7-0.7,1.7-1.7c0,0,0,0,0,0C74,254.1,73.6,252.4,72.7,251 M200.6,252.1c0.8-0.1,1.5-0.8,2.4-0.8
	c0.6,0.5,0.4,1.2,0.5,1.9c-3.4,0.1-6.6,1.2-9.9,2c-0.1-0.7-0.2-1.4-0.4-2.1C195.7,253.1,198.2,252.8,200.6,252.1 M202.9,256.2
	c0.4-0.2,0.7-0.4,1.1-0.4c0,0.6,0,1.3,0.1,1.9c-2.1,1.1-4.6,1.1-6.4,2.5c2.2,0.7,4.4,1.2,6.7,1.5c0.4,0.3,0.2,0.9,0.3,1.4
	c-1.3,0-2.5-0.3-3.7-0.8c-2.2-0.6-4.4-1.3-6.7-1.9c0.4-0.6,1-1,1.6-1.3C198.3,258,200.8,257.5,202.9,256.2 M68.8,265.3
	c1.6-0.8,3.3-1.5,5-2.1c0,0.5,0,1,0,1.5c-1.3,0.6-2.5,1.1-3.8,1.7c-0.2,1.3-0.9,2.9,0,4.1c0.6,0.8,1.8,0.6,2.7,0.8
	c0.8,0.2,0.6,1.2,0.7,1.8c-1.8-0.3-3.4-1.4-5-2.1c-0.7-0.3-1.3-0.5-1.9-0.9h-0.2c-0.3-0.5-0.9-0.5-1.3-0.7c-0.6-0.3-1.2-0.8-1.5-1.4
	c0.4-0.5,0.9-0.9,1.6-1.1C66.3,266.5,67.5,265.8,68.8,265.3 M65.7,268.3c0.9,0.7,1.9,1.2,2.9,1.6c0.1-1,0-2,0-3
	C67.5,267.2,66.6,267.7,65.7,268.3 M96.5,270.9c3.6-3.8,8.8-5.7,14-5.1c2.4,0.3,4.7,1.1,6.9,2.2c0.6,0.2,0.7,0.9,0.9,1.3
	c-1.1,0.1-2.2-0.2-3.3-0.1c-2.1,0.2-4.2,0.7-6.2,1.5c-6.7,2.8-10.1,10.3-7.7,17.2c0.8,2.5,2.3,4.6,4.3,6.3c1.6,1.2,3.2,2.2,5,3.1
	c1,0.6,2.1,1,3.2,1.1c1.7,0.2,3.4-0.4,5,0.3c-0.2,0.5-0.5,1.1-1.1,1.2c-2.1,1-4.4,1.6-6.7,2.1c-3.7,0.4-7.5-0.3-10.7-2.2
	c-2.8-1.6-5.1-3.9-6.6-6.7c-2-3.8-2.7-8.2-1.9-12.4C92.2,277.1,93.9,273.6,96.5,270.9 M97.6,272.4c-6,6.1-6.3,15.9-0.6,22.4
	c2.6,2.7,5.8,4.5,9.4,5.4c2.1,0.5,4.6,0.9,6.5-0.4c-1.5-0.5-3-1-4.4-1.5c-3-1.1-5.3-3.6-7.3-6c-1.5-2.1-2.4-4.7-2.5-7.3
	c-0.2-2.6-0.2-5.4,1-7.9c1.3-2.7,3.1-5.4,5.8-6.8c2.3-1.3,5-1.6,7.5-2.6c-0.6-0.1-1.1-0.2-1.7-0.3c-1.1,0-2.2,0-3.4,0
	C104,267.8,100.3,269.6,97.6,272.4 M194.2,268.9c0-1.2,0-2.3,0.2-3.5c2.4,1.1,5.2,0.8,7.8,0.5c0.9-0.1,2.1-0.1,2.5,0.9
	c0.6,1.9,0.3,3.9,0.1,5.9c-0.7,0-1.4,0.1-2.1,0.1c0.5-0.6,0.9-1.3,1.1-2.1c0.1-1,0-2-0.2-3c-1.2,0-2.3,0-3.5,0
	c0,1.1,0.2,2.2,0.2,3.3c-0.6,0.1-1.2,0-1.8-0.1c0.3-1,0.5-2.1,0.6-3.2c-0.9-0.2-1.9-0.2-2.9-0.2c-1,0.2-1,1.4-1.1,2.2
	c-0.1,1.2,0.9,2.1,1.3,3.2c-0.7-0.1-1.7,0-2.1-0.8C194.2,271,194.1,270,194.2,268.9 M152.2,266.9c1.4-0.2,2.7,0,4,0.5
	c1.6,0.4,3.2,1.1,4.5,2.2c0.9,0.9,1.8,1.8,2.7,2.8c1.9-1.3,3.6-2.9,5.7-4c2.5-1.1,5.2-1.7,7.9-1.6c0.2,0.6,0.4,1.2,0.7,1.8
	c0.6-0.6,1.4-0.9,2.3-1l1.1,1.9c0.7-0.2,1.3-0.5,2-0.7c0.5,0.6,0.7,1.3,0.6,2.1c0,2.6,0,5.2,0,7.8s0.3,5.1,0.5,7.6
	c0,1.1,0.1,2.4-0.9,3.1c-1,0.6-2,1-3.1,1.2l-10.4,3.1c-0.9,0.2-1.7,0.5-2.4,1c-0.6,0.6-1.4,1-2.2,1.4c-1.2,0.2-2.4,0.1-3.6-0.2
	c-0.7,0-1.3-0.3-1.8-0.8c-0.4-0.5-1-0.9-1.6-1c-2.8-0.5-5.7-0.6-8.5-0.8c-1.7-0.3-3.4-0.6-5.1-0.6c-1.1,0-2.2,0-3.2-0.3
	c-0.1-4.7,0.9-9.2,1.3-13.9c0.3-3.4,0.5-6.8,0.9-10.2c2.2,0,4.3-0.1,6.5-0.3C150.9,268,151.4,267.1,152.2,266.9 M153.1,268.3
	c-0.2,1-0.3,2-0.4,3c-0.3,4.4-0.8,8.7-0.8,13.1c1.4,0.6,2.9,1,4.2,1.7c1.6,0.9,3.3,1.7,4.9,2.7c0.6,0.4,1.3,0.1,2,0
	c0.1-4.7-0.3-9.5-0.6-14.2c-0.2-1.8-1.2-3.4-2.8-4.3C157.7,268.9,155.4,268.2,153.1,268.3 M169.6,269.8c-2.1,1.2-4.1,2.6-5.9,4.1
	c0.2,4.4,0.6,8.8,0.7,13.2c1.4-0.3,2.2-1.6,3.4-2.2c1.7-0.9,3.6-1.5,5.4-2.2c0.6-0.2,1.1-0.5,1.6-1c0.3-0.6,0-1.3-0.1-1.9
	c-0.7-2.5-1-5.1-1-7.7c0-1.2-0.1-2.4-0.2-3.6C172,268.6,170.8,269.1,169.6,269.8 M174.9,270.3c-0.1,2.7,0.1,5.4,0.7,8
	c0.3,1.2,0.5,2.5,0.7,3.8c0.1,0.6-0.6,0.9-1.1,1.1c-2,0.8-4.3,1.2-6,2.6c2.8-0.9,5.6-2,8.6-2.1c-0.1-0.8-0.2-1.6-0.4-2.4
	c-0.4-1.1-0.7-2.3-0.9-3.5c-0.2-3.1-0.3-6.3-0.1-9.4C175.6,268.8,175.1,269.5,174.9,270.3 M151.4,269.1c-0.5,1.9-0.8,3.8-1,5.8
	c-0.5,3.7-0.9,7.3-1.2,11c1.3,0.3,2.6,0.6,3.9,0.9c0.8,0.3,1.7,0.4,2.5,0.2c-1.4-0.4-2.7-0.9-4.1-1.2c-1.1-0.4-1.3-1.6-1.2-2.6
	c0.2-3,1-6,1.3-9C151.9,272.5,151.8,270.8,151.4,269.1 M177.1,272.6c-0.3,4.1,1.5,8,2.1,12c-2,0.1-3.9,0.4-5.8,1.1
	c-3.3,1-6.6,2.4-9.6,4.1c-1.1,0.6-1.9,1.8-3.1,2.2c-1.7,0.1-3.1-1.1-4.8-1.5c0.7,0.6,1.4,1.2,2.2,1.8c1.1,0.5,2.3,0.3,3.4,0.4
	c-0.2,0.5-0.4,0.9-0.6,1.4c0.7-0.4,1.2-1,2-1c0.9,0.1,1.8,0.8,2.7,0.6c1.2-0.3,2.2-1,3.4-1.3c1.9-0.5,3.8-1,5.7-1.7
	c2.3-0.8,4.7-1.3,7.1-1.9c0.9-0.1,1-1.1,0.9-1.8c-0.7-4.2-0.9-8.5-0.6-12.8c0.1-1,0-1.9-0.2-2.9c-0.2-0.6-0.9-0.6-1.4-0.8
	c-0.3,1.2-0.5,2.4-0.4,3.7c0.1,2.9,0.7,5.7,1,8.5c0.2,1.3,0.2,2.7,0,4c-1.9,0.3-3.9,0.3-5.8,0.7c-2.4,0.5-4.8,1.3-7.1,2.2
	c-0.7,0.2-1.3,0.5-1.9,0.9c-0.9,0.7-1.9,1.3-2.9,1.8c0.2-0.9,0.8-1.6,1.5-2.1c1.7-1.1,3.6-1.9,5.6-2.4c2-0.7,4.1-1.2,6.2-1.7
	c1-0.1,1.9-0.3,2.9-0.6c0.8-0.5,0.6-1.4,0.6-2.2c-0.2-2.8-0.8-5.5-1-8.3c-0.1-1.8-0.1-3.6,0.2-5.4
	C178,269.9,177.1,271.2,177.1,272.6 M145.3,270.2c-0.2,0.9-0.4,1.8-0.4,2.8c-0.6,5.8-0.9,11.7-2.2,17.4c3.6,0.5,7.1,1.1,10.7,1.3
	c0.8,0.1,1.7,0,2.5-0.1c-1.1-0.3-2.3-0.4-3.4-0.8c-1.9-0.6-3.9-0.8-5.9-0.7c-1.2-1.9-0.9-4.2-0.7-6.3c0.7-4.5,1.9-8.9,1.8-13.5
	C146.9,270.1,146.1,270.1,145.3,270.2 M149.6,270.1c-0.5,1.6-0.9,3.2-1.1,4.9c-0.6,3.5-1,7-1.5,10.5c-0.2,0.7-0.2,1.5-0.2,2.3
	c2.9,0.1,5.7,0.8,8.6,1.1c-2.2-1.4-4.9-1.5-7.4-2c0.6-5.4,1.2-10.8,1.9-16.2C149.9,270.5,149.7,270.3,149.6,270.1 M155.6,287.6
	c0.5,0.4,1.1,0.6,1.8,0.6C157.1,287.6,156.3,287.6,155.6,287.6 M148.3,289c0.7,0.2,1.4,0.3,2.2,0.4l-0.1,0.1
	c1.2,0.1,2.4,0.5,3.6,0.6v0.1c0.5,0,1,0.1,1.5,0.1c-0.6-0.3-1.2-0.5-1.8-0.7v-0.1l-0.9-0.1c-0.6-0.2-1.2-0.2-1.8-0.2v-0.1
	C150.2,289.1,149.2,289.1,148.3,289 M155.2,271.3c0.8-0.1,1.6,0,2.2,0.3c0.9,0.6,1.7,1.1,2.6,1.7c0.6,0.4,1,1,1.3,1.7
	c-0.6-0.1-1.5,0.3-1.9-0.3C158.4,273.1,156.2,272.9,155.2,271.3 M169.6,271.9c0.9-0.4,2-1,2.9-0.3c-0.4,0.5-0.9,0.9-1.6,1.1
	c-1.5,0.5-3,1.2-4.3,2.2c-0.4,0.3-0.9,0.4-1.4,0.5C166.2,273.8,168,272.8,169.6,271.9 M154.7,273.5c1.2,0.1,2.4,0.5,3.5,1.1
	c1.2,0.3,2.3,1.1,2.8,2.2c-1.9,0-3.1-1.7-5-1.8c0.9,1.6,3.1,1.4,4.2,2.8c0.3,0.4-0.1,0.8-0.3,1.1c-1.4-1-3-1.7-4.4-2.6
	c0-0.5,0-0.9-0.1-1.4C155.2,274.5,154.9,274,154.7,273.5 M165.7,277.5c1.6-2.1,4.2-3.4,6.9-3.4c-0.3,0.5-0.5,1.1-1.1,1.2
	C169.6,276.1,167.7,276.9,165.7,277.5 M194.4,276.1c0.1-0.6,0.2-1.1,0.3-1.7c3.2,0.4,6.4,1.8,9.6,1c0.3,1.7,0.1,3.4-0.4,5
	c-0.2,0.9-1.1,1.5-2,1.4c-1.2-0.4-2.3-1.3-3-2.4c-1.3,0.4-2.4,1-3.6,1.8c-0.5,0.3-1.1,0.5-1.7,0.5c0.2-0.7,0.3-1.5,1-1.8
	c1.3-0.7,2.8-1.1,4.1-1.9c0.5-0.2,0.4-0.7,0.5-1.1C197.7,276,196,276.1,194.4,276.1 M200.1,277.3c0,1,0.3,1.9,0.8,2.7
	c0.7-0.1,1.5,0,1.9-0.6c0.4-0.6,0.5-1.2,0.4-1.9c-0.3-0.5-0.9-0.5-1.4-0.6S200.5,276.7,200.1,277.3 M166.4,278.4
	c1.2-0.5,2.3-1.3,3.4-1.8c0.6-0.3,1.4-0.2,1.9,0.2c-1.7,1.4-3.7,2.4-5.8,2.9C166.1,279.2,166.3,278.8,166.4,278.4 M155,277.6
	c2,0.6,3.7,1.9,5.6,2.7c0,0.3,0.1,0.8,0.1,1c-1.8-0.5-3.4-1.3-5-2.2C155.1,278.8,155,278.1,155,277.6 M221.3,282.2
	c1.2-1.4,2.5-2.5,4.1-3.3c0.8,1.6-0.3,3.4,0.2,5c0.9,0.5,1.8,0.9,2.7,1.1c0.7,0.1,1.1,0.8,1.6,1.3c-1.2,1.2-3,1.2-4.6,1.1
	c0,1.5-0.2,2.9-0.1,4.4c-0.8,0.1-1.5-0.2-2.1-0.7c-0.6-0.7-0.9-1.5-1.5-2.2c-1-0.1-2,0.1-2.9,0.5c-0.8,0.4-1.7,0.7-2.7,0.8
	c-0.1-2.2,2.4-3.2,2.7-5.2c-0.3-0.5-0.7-1-1.1-1.4c-0.7-0.8-1.1-1.9-1.2-3C218,281,219.6,281.8,221.3,282.2 M166.3,282.2
	c0.8-1.5,2.1-2.6,3.8-3.1c0.5-0.1,1,0,1.4,0.2C170.2,281,168.1,281.5,166.3,282.2 M41.7,279.9c0.5,0.1,0.9,0.2,1.3,0.4
	c0.8,0.3,1.1,1.3,1.9,1.7c0.7,0.4,1.6,0.4,2.3,0c0.9-0.4,1.8-0.6,2.8-0.5c-0.4,1.4-1,2.8-1.8,4.1c0.6,0.7,1.2,1.3,1.8,1.9
	c0.5,0.7,0.9,1.5,1,2.4c-1.5,0.4-2.9-0.2-4.4-0.1c-0.7,1-1.3,2-1.9,3c-0.3,0.6-1,0.6-1.5,0.8c-0.5-1-0.7-2.2-0.5-3.3
	c-0.1-1.6-1.9-2-3.2-2.1l-0.6-0.6c-0.1-0.6,0.1-1.1,0.5-1.5c0.8-0.5,1.6-0.9,2.5-1.1C41.7,283.2,41.6,281.5,41.7,279.9 M155,280
	c1.4-0.2,2.6,0.8,3.8,1.4c0.6,0.3,1.2,0.7,1.8,1.1c0.5,0.4,0.3,1.2,0.4,1.8c-1.2-0.8-2.4-1.6-3.6-2.3c-0.5-0.2-1-0.4-1.5-0.6
	C155.4,281,155.2,280.5,155,280 M167.1,283.5c0.6-1.7,2.2-2.7,4-2.6C170.6,282.7,168.6,283.1,167.1,283.5 M155.7,283.2
	c0.3-0.2,0.7-0.6,1.2-0.3c1.4,0.5,2.7,1.2,3.9,2.2c0.1,0.3,0.2,0.6,0.2,1c-1.7-0.8-3.4-1.6-5.2-2.4L155.7,283.2 M193.3,283
	c1-0.2,2,0,2.9,0.5c-0.8,0.6-2.1,0.5-2.6,1.5c-0.5,0.9-0.4,2.1,0.2,2.9c0.3,0.3,0.7,0.4,1.1,0.3c1.9-0.5,2.9-2.5,4.8-2.9
	c1-0.2,2,0.3,2.3,1.3c0.5,1.6,0.1,3.4-1,4.7l-1.4-0.9l1.9-1.5c-0.2-0.7-0.3-1.4-0.5-2.1c-0.6,0-1.4-0.1-1.9,0.3
	c-1.3,0.9-2.4,2.3-4.1,2.5c-1.2,0.1-2.3-0.7-2.5-1.9C191.9,286.1,192.9,284.6,193.3,283 M75.9,287.4c0.4-0.1,0.9-0.1,1.3,0
	c0.6,0.4,1,0.9,1.3,1.5c0.7,1.4,1.2,2.8,1.5,4.3c-2.6,1-5.2,2-7.8,3c-0.7,0.3-1.4,0.5-2.1,0.7c-0.4-1.1-0.9-2.1-1.5-3.1
	c-0.4-0.6-0.7-1.2-0.9-1.9c0.1-0.3,0.3-0.6,0.5-0.9l0.7,0.5c0,1.3,0.6,2.6,1.6,3.5c1.3,0,2.5-0.5,3.5-1.4c-0.4-0.8-1-1.6-1.4-2.4
	c0.4-0.2,0.8-0.4,1.2-0.6c0.3,0.9,0.5,1.7,0.7,2.6c1.4-0.1,2.7-0.4,4-1c0-0.8-0.2-1.6-0.4-2.4c-0.3-0.8-1.4-0.9-1.8-1.6
	C76.1,288.1,75.9,287.7,75.9,287.4 M171.2,289l6.1-1.6c0.6-0.1,1.5-0.3,1.9,0.4c-1,1-2.4,0.9-3.7,1.2c-3.4,1.2-6.8,2.5-10.3,3.6
	c0.2-0.6,0.4-1.4,1.1-1.6C167.9,290.4,169.4,289.4,171.2,289 M190.1,291.4c0.3-0.5,0.6-1,0.9-1.5c2,1.2,4.1,2.3,6.2,3.3
	c1,0.3,1.9,0.7,2.6,1.4c-0.1,0.4-0.1,0.7-0.2,1.1c-0.4,0-0.9-0.1-1.3-0.2L190.1,291.4 M130.8,294.6c0-0.7,0.1-1.4,0.3-2
	c1.3,1.1,2.5,2.2,3.7,3.4c0.3-0.7,0.5-1.3,0.8-2c1.6,1,2.4,2.8,3.2,4.4c0.4-0.6,0.7-1.5,1.5-1.6c0.4,0.5,0.6,1.1,0.5,1.7
	c0.1,0.8,0,1.6-0.2,2.4c-0.5,1.2-0.8,2.4-1,3.7c0.7-0.4,1.2-0.9,1.9-1.2c1.2,2.3,0.5,4.9,0.2,7.3c4.3-0.2,8.7-0.2,13-0.7
	c1.8-0.1,3.8-0.3,5.3,0.9c1.2,1,1.2,2.7,1,4.1c-2.4,0.9-5,1.5-7.6,1.8c-6.1,0.7-12.2,0.8-18.4,1c-1.4,0.2-2.8,0.3-4.3,0.2
	c-0.9-0.1-1.8-0.2-2.7-0.2c-4.3,0.3-8.5,1.1-12.8,0.7c-1.6-0.1-3.2-0.7-4.4-1.8c0.1-1.3,0.8-2.5,1.9-3.2c1.8-1.2,4-1.5,6.1-1.7
	c2.8-0.1,5.7,0,8.6,0.1c0.6-0.8,0.9-1.7,1-2.6c-0.1-1.6-0.3-3.1-0.7-4.6c-0.3-1-0.3-2.1,0-3.1c0.6,0.1,1.1,0.5,1.3,1
	c0.8,1.9,2.2,3.5,2.6,5.6c0.2-0.2,0.4-0.4,0.7-0.6c0.1-0.9,0-1.7-0.2-2.6c-0.5-1.4-1.3-2.6-1.7-4c-0.1-0.4-0.1-0.8,0-1.1
	C130.7,298,130.8,296.3,130.8,294.6 M143.9,312.6c-1.2,0.9-2.2,2-3,3.3c0.6,0.1,1.3-0.1,1.8-0.4c1.3-1.1,2.5-2.4,3.4-3.8
	C145.4,311.8,144.6,312.1,143.9,312.6 M148.6,312.3c-1.1,1-2.6,1.8-3.2,3.4c0.8-0.1,1.5-0.2,2.3-0.4c0.8-1.3,2.1-2.2,2.9-3.5
	C149.8,311.6,149.1,311.8,148.6,312.3 M153.6,311.8c-0.5,0.3-1,0.7-1.4,1.2c-0.6,0.7-1.5,1.2-1.9,2.2c2.4,0,4.6-1.3,5.8-3.4
	C155.2,311.7,154.4,311.7,153.6,311.8 M139,312.7c-1.2,0.8-2.1,2-2.7,3.3c2.2-0.4,3.7-2.2,5-4C140.5,312.1,139.8,312.3,139,312.7
	 M128.3,313.1c-1.2,0.9-2.2,2-3,3.2c1,0.1,1.9-0.2,2.7-0.7c0.5-0.4,0.7-1,1.3-1.3c0.8-0.4,1.4-1,1.8-1.8
	C130.1,312.3,129.1,312.6,128.3,313.1 M133.7,312.4c-0.8,1.5-2.6,2.1-3.4,3.6h2.9c1.1-1.1,2.1-2.3,2.9-3.6L133.7,312.4 M157.2,313
	c-0.3,0.5-0.6,1-0.8,1.5c1.2-0.1,2.3-0.9,2.6-2.1C158.4,312.4,157.8,312.6,157.2,313 M120.8,316.5c0.6,0,1.3-0.1,1.9-0.2
	c1.2-0.9,2.2-2,3-3.2c-0.6,0-1.3,0-1.9,0C122.7,314.2,121.7,315.3,120.8,316.5 M119.1,313.8c-1,0.8-1.7,1.8-2.3,3
	c1.9-0.3,3.2-2,4.3-3.5C120.4,313.2,119.7,313.4,119.1,313.8 M113.7,314.6c-0.3,0.4-0.5,0.9-0.6,1.4c0.5,0.2,0.9,0.3,1.4,0.3
	c1-0.5,1.2-1.7,1.6-2.6C115.3,313.8,114.4,314.1,113.7,314.6 M186.7,297.6c0.2-0.8,0.8-1.5,1.5-2c1.7,1.8,3.7,3.3,5.8,4.5
	c0.5,0.2,1,0.6,1.6,0.4c0.8-0.9,1.2-2.1,1-3.3c0.5,0.3,1,0.6,1.6,0.9c-0.5,2.1-2,3.8-2.9,5.8c-0.4,1-1,2-1.9,2.7
	c-0.5-0.3-0.9-0.6-1.2-1.1c1-1,2.1-2,2.4-3.4C192,300.5,189.8,298.3,186.7,297.6 M80,296.8c0.7-0.4,1.6-0.5,2.4-0.2
	c-0.1,0.5-0.3,1.2-1,1.4c-1.3,0.4-2.4,1.1-3.3,2c0.7,1.8,1.8,3.5,3,5c1.6-0.5,2.9-1.8,4.6-2.2l0.5,0.6c-0.2,0.4-0.4,0.9-0.8,1.1
	c-1.7,0.9-3.4,1.8-5,2.8c-1.1,0.7-2.1,1.5-3,2.3c-0.6-0.6-1.1-1.2-1.4-2c1.4-0.5,2.7-1.2,3.9-1.9c-0.7-1.8-1.6-3.5-2.7-5.1
	c-0.7,0.1-1.3,0.3-1.9,0.7c-0.7,0.6-1.4,1.2-2.2,1.6c-0.2-0.4-0.5-0.8-0.7-1.2c0.4-0.9,1.4-1.2,2.3-1.6c1.8-1,3.5-2.2,5.3-3.3
	 M180.9,306.2c0.3-0.7,0.8-1.4,1.4-1.9c1.3,2.1,3.5,3.4,6,3.5c1.3,0.2,2.7,0.2,4,0.1c-0.2,0.8-0.6,1.9-1.6,1.8
	c-1.6-0.2-3.2-0.8-4.8-1c0.2,1.9,0.8,3.8,1.9,5.5c-0.3,0.6-0.7,1.2-1.5,1.1c-0.3-1.9-0.7-3.8-1.2-5.6c-0.2-0.9-0.8-1.7-1.6-2.2
	C182.6,307,181.7,306.7,180.9,306.2 M89.4,309.6c0.6-0.5,1.3-1.1,2.1-0.8c0.5,0.5,0,1.2-0.4,1.5c-2.3,1.9-4.4,3.9-6.6,5.8
	c0.5,1.3,2,1.4,2.7,2.5c-0.3,0.3-0.6,0.6-1,0.9c-0.9-0.8-1.7-1.7-2.4-2.6c-1.1-1.1-2.3-2.1-3.3-3.4c-0.2-0.3-0.1-0.7,0.2-0.8
	c0.2-0.1,0.4-0.1,0.6,0c0.6,0.8,1.3,1.6,2.1,2.2C85.3,313.1,87.3,311.4,89.4,309.6 M207,310.5c0.6-0.4,1.3-0.5,2-0.3
	c0.5,0,0.4,0.6,0.5,0.9c0.1,2-0.6,4.6-2.8,5.1c-0.2-1.3,1.2-2.6,0.2-3.8l-0.2-0.3C206.7,311.6,206.8,311,207,310.5 M62.7,311.6
	c0.5,0.1,1,0.1,1.4,0.2l0.1,0.6c0.6,0.3,1.2,0.5,1.8,0.7c0.6-0.3,1.2-0.4,1.9-0.4c0,0.9,0,1.7,0,2.6c-1.2-0.1-3-0.1-3.5-1.5
	l-0.2,0.5c0,0.5-0.2,1,0,1.4c1.3,0.9,3.4,0.1,4.4,1.5c-0.3,0.5-0.5,1.1-1.1,1.2c-1.1,0.1-2.1-0.4-3.1-0.6c-1.1,1.3-0.9,3.3-2.4,4.3
	s-3.3,0.5-4.8,0.2c0,0.2,0,0.5,0,0.6c-0.1,0.7-0.1,1.5,0,2.2c0.2,1.1,1.1,1.9,2.3,1.9c1.3-0.1,2.8,0.3,4-0.4l0.2-0.8
	c-0.2-0.7-0.1-1.6,0.3-2.2c0.6-0.4,1.3-0.6,2-0.8c0.7,2.6-0.6,5.4,0.3,8c0.2,1,0.8,1.8,1.7,2.4c0.8,0.3,1.8,0,2.4-0.6
	c0.8-0.8,1.6-1.6,2.2-2.5c0.6-0.5,1.5-0.6,2.1-1.2c0.8-0.5,1.8-0.6,2.7-0.4c1.6,0.3,3.2,0.8,4.7,1.4c1.3,0.5,2.7,0.7,4,1.3
	c-0.1,0.3-0.3,0.7-0.5,1c-0.9,0-1.8,0-2.7,0.1c1.1,0.4,2.3,0.7,3.4,0.7c0,0.5,0.1,0.9,0.2,1.4c-2.4,0.7-4.8-0.2-7.1-1
	c-1.6-0.7-3.3-1.3-5.1-1.6c-1.1,1.1-2.2,2.3-3.2,3.5c1.8-0.4,3.8-1.7,5.7-0.8c-1.2,1.7-3.8,1.7-4.9,3.5c-0.6,1,0,2.2,0.5,3.2
	c2,3.2,5.7,4.9,9.4,5.3c-0.3-1.2-1-2.4-0.7-3.7c0.1-0.7,0.6-1.2,1.2-1.5c0.6-0.1,1.1-0.2,1.7-0.5c2.1-1.1,2.7-3.6,4.4-5.1
	c0.7-0.4,1.4-0.5,2.2-0.4c-0.3,1-0.7,2-1.3,2.9c-0.9,1.3-2.1,2.3-2.5,3.8c0.4,0.7,1,1.2,1.6,1.7c0.6,0.4,1.2,0.6,1.9,0.9
	c0.4-0.9,0.8-1.9,1.8-2.2c1.2-0.3,2.5-0.6,3.8-0.8c2,0.4,3.8,1.5,5,3.2c0-0.1,0-0.4,0-0.6h0.7c0,0.2,0,0.5,0,0.7h-0.7
	c-0.2,0.3-0.3,0.7-0.5,1c-0.7,0.3-1.5,0.2-2-0.4c-1.1-0.8-2.1-2-3.6-2.3c-0.8,0-1.3,0.8-1.8,1.3c0.2,0.5,0.6,0.9,1,1.1
	c1.4,0.8,3.2,0.8,4.8,1.2c-0.1,0.4-0.1,0.7-0.2,1.1c-1.3,1.1-3,0.6-4.5,0.2c-0.8-0.4-1.7-0.4-2.6-0.1c-1.2,0.8-2.1,1.9-2.6,3.3
	c0.7,1.1,1.7,1.9,2.8,2.5c2.4,1.3,5,2.2,7.7,2.5c1.6,0.3,3.3,0,4.8-0.7c0-0.6-0.2-1.1-0.4-1.6c-0.5-0.7-1.3-1.1-1.8-1.8
	c-0.2-1,0.1-2,0.9-2.7c1.2-1.3,2.8-2.1,4.5-2.5c1.3-0.1,2.5,0.2,3.6,0.8c-0.1,0.9-0.2,1.9-0.3,2.8c0,0.3-0.1,0.5-0.1,0.8
	c2.1,2,5.1,2.6,7.9,2.7c2.6,0,5.2-0.4,7.7-1.2c0.9-0.5,1.8-0.8,2.8-1.1c1-0.2,1.9,0.6,3,0.5c0.7-0.3,1.3-0.6,1.8-1.1
	c0.6,0.3,1.2,0.5,1.8,0.8c0.2-0.9,0.2-1.9,1-2.5c0.5-0.4,1-0.6,1.6-0.6c0.1,1.4,0.3,2.9-0.5,4.1c-1,1.4-2.9,1-4.4,0.7
	c-0.8,0.5-1.7,0.8-2.7,0.8c-0.8-0.1-1.5-0.1-2.3,0c-2.9,0.7-5.7,2.2-8.8,2.3c-1.2,0.1-2.3,0-3.5-0.2c-2-0.3-4-0.9-5.8-1.8
	c-1.1-0.6-1.9-1.6-2.2-2.8c-0.1-0.9-0.1-1.8,0.2-2.7c-1.1-0.2-2.3,0.1-3.2,0.7c0.3,0.6,0.7,1.1,1.2,1.5c1,1,1.3,2.6,0.7,3.9
	c-0.7,1.3-1.9,2.4-3.3,2.8c-1.3,0.5-2.7,0.8-4.2,0.9c-3.4-0.2-6.7-1.2-9.6-2.9c-1.5-1-3.1-2.5-3-4.5s1.6-3.6,2.8-5.1
	c-1.3-0.4-2.4-1-3.5-1.9c-0.8-0.7-1.5-1.5-2.1-2.4c0.2,1.6,0.9,3.1,0.8,4.8c-0.8,0.6-1.8,1.1-2.8,1.4c-1.6,0.2-3.3,0-4.8-0.5
	c-2-0.7-3.8-1.6-5.6-2.7c-1.7-1-2.9-2.6-3.2-4.5c-0.2-1.7,0.6-3.2,1.1-4.8l-1.4,0.2c-1.1,0.1-2.4,0.3-3.2-0.6
	c-1.7-1.5-1.6-4-1.6-6.1c-1.8,0.1-3.6,0.1-5.5,0c-1.2-0.1-2.3-0.7-3-1.7c-0.6-1.5-0.6-3.1,0-4.5c0.2-0.7,0.6-1.3,1.1-1.9
	c-0.9-1.4-0.8-3.3,0.4-4.5c1.2-1.5,3.4-1.1,5.1-1.1v-2.1C62,312.8,62.3,312.1,62.7,311.6 M59.2,318.2c-0.2,0.8,0,1.6,0.5,2.3H61
	c0.5-0.9,0.8-1.9,1-2.9c-0.6-0.2-1.3-0.3-1.9-0.3C59.7,317.3,59.3,317.7,59.2,318.2 M78.7,330.9c0.7,0.5,1.5,0.6,2.3,0.5
	C80.4,330.9,79.5,330.7,78.7,330.9 M70.1,335.3v0.6h0.5l0.5-0.4L70.1,335.3 M211.7,313.7c0.6-1,1.9-1.5,3.1-1.1
	c1.1,0.5,1.8,1.5,1.8,2.7c0.2,1.3-0.1,2.7-0.9,3.8c-0.9,1.2-2.8,1.1-3.3,2.7c-0.7,1.9-2.1,3.5-3.3,5c-0.6,0.7-0.9,1.6-1.5,2.3
	c-0.5,0.5-1.3,0.7-1.7,1.4c-0.4,1.1-0.9,2.2-1.5,3.3c-0.6,0-1.3,0-1.9-0.1c-0.8-0.1-1.6-0.1-2.4-0.2c-0.1,0.6-0.3,1.2-0.4,1.8
	c-0.8,0.3-1.1,1.2-1.4,1.9c-0.4,1.2-0.9,2.4-1.6,3.4c-1.1,1-2.7,1-3.9,1.7c-0.3,0.9-0.5,1.8-0.7,2.6c-0.6-0.1-1.5,0-1.6-0.8
	c0-2.2,0.2-4.4,0.6-6.6c0.1-1.3,0.9-2.4,2.1-2.9c1.7-0.9,3.6-1,5.4-1.5c-0.2-0.6-0.6-1.2-1-1.6c-1.6-2-3.8-3.5-4.9-5.9
	c-0.3-0.7-0.5-1.4-0.4-2.2c0.7,0,1.4,0.3,1.9,0.7c1.3,1.5,2.3,3.3,3.5,4.8c1,1,2.2,1.8,3.3,2.6c0.9-0.4,1.7-0.9,2.4-1.4
	c0.8-0.8,1.2-1.8,1.3-2.9c0.7-0.1,1.4-0.1,2.1-0.2c0.5-0.9,0.8-1.9,0.8-2.9c0.5-0.2,1-0.4,1.5-0.6c-0.1-0.8-0.2-1.6-0.1-2.4
	c0.6,0.1,1.3-0.1,1.8-0.4C210.2,318.4,210.6,315.9,211.7,313.7 M212.4,316.3c0,0.7,0.2,1.3,0.5,1.9c0.5-0.1,1-0.4,1.4-0.7
	c0.3-0.4,0.5-0.9,0.7-1.4c-0.3-0.4-0.6-0.7-1-0.9C213.4,315.4,212.7,315.6,212.4,316.3 M193.4,337.6c-0.5,0.6-0.8,1.4-0.8,2.2
	c0.9,0.2,1.8,0,2.6-0.5c1-0.8,1.7-2,1.8-3.3C195.7,336.2,194.5,336.8,193.4,337.6 M39.1,316.3c0.2-0.4,0.8-0.7,1-0.1
	C40.2,316.8,39.4,316.3,39.1,316.3 M166.4,318.7c0.5-0.4,1-0.8,1.5-1.1c0.8,2.5,2,4.9,3,7.4c0.3,1.1,1.6,1.8,1.2,3h-0.9
	c0,0.1,0,0.4,0,0.6H170c0.2-0.6,0.3-1.2,0.1-1.9c-0.3-1.1-0.9-2.2-1.6-3.1c-1.6,0.9-3.3,1.6-5,2.4c0.5,1.8,1.2,3.4,2.3,4.9
	c-0.7,0.4-1.4,0.7-2.1,1.1c0-1.1-0.3-2.2-0.7-3.3c-1-2.3-2.1-4.5-3.5-6.6l0.7-0.7l1.1-0.1c0.6,1.2,1.1,2.5,1.5,3.8
	c2-0.6,3.8-1.5,5.5-2.6L166.4,318.7 M201.6,318.3c0.8-0.2,1.5-0.2,2.3-0.2c0.1,0.1,0.2,0.4,0.2,0.6l0.6,0.1c0,2.3-0.9,4.4-2.5,6
	c-0.7-0.3-0.6-1.2-0.4-1.8c0.6-1,1-2.1,1.3-3.2c-0.6,0.3-1.3,0.5-2,0.4C200.9,319.6,200.9,318.7,201.6,318.3 M70.2,319.6
	c0.5-0.4,1.2-0.6,1.8-0.7c-0.1,0.6,0,1.3-0.6,1.8c0.1,0.3,0.2,0.5,0.4,0.8c0,0.6,0.1,1.4-0.6,1.7c-1.3,0.4-2.4-0.4-3.4-1.2
	c-0.3-0.3-0.6-0.7-0.7-1.2C68.2,320.3,69.3,320.3,70.2,319.6 M108.5,323.3c0.4-0.3,1-0.6,1.6-0.6c0.3,4,0.6,8,1,11.9
	c-1,0-1.9-0.4-2.7-1c0.3-0.5,0.8-0.8,0.9-1.4c0-1,0-1.9-0.2-2.9c-1.3-0.3-2.5-0.8-3.6-1.5c-0.7,0.6-1.7,1.1-2.1,2
	c-0.2,0.5-0.5,0.9-0.8,1.2c-0.7-0.2-1.3-0.5-2-0.8C103.1,328,105.8,325.7,108.5,323.3 M106.1,326.7c0.8,0.8,1.8,1.2,2.8,1.2
	c-0.1-1-0.1-2-0.1-3C107.7,325.1,107,326.1,106.1,326.7 M151.3,325c1.6-0.6,3.1-1.7,4.8-1.5c1.2,0.1,1.8,1.4,2,2.4
	c0.1,1,0,2-0.5,2.9c0.6,0.6,1.2,1.3,1.8,1.9c0.8,0.8,1.8,1.1,2.6,1.9c-0.7,0.6-1.6,0.7-2.4,0.2c-1.6-0.9-2.6-2.6-4.3-3.4
	c-0.1,0.1-0.3,0.4-0.4,0.5c0.1,1.7,0.7,3.3,1.7,4.7c-0.6,0.5-1.5,1.6-2.3,0.9c0-0.9-0.2-1.8-0.4-2.7
	C153,330.2,151.8,327.7,151.3,325 M153.6,325.3c-0.5,1.1,0.2,2.3,0.5,3.3c1.1-0.1,2.4-0.5,2.7-1.8c0-1.1-0.9-2-2-1.9
	C154.3,324.9,153.9,325,153.6,325.3 M116.4,324.6c0.6,0.2,1.2,0.4,1.9,0.5c-0.8,2.7-1.9,5.3-2.4,8c-0.1,0.6-0.3,1.5,0.4,1.8
	c0.9,0.5,2,0.8,3,0.9c1.1,0.3,2-0.7,3.1-0.8c-0.3,0.8-0.7,1.8-1.7,2c-1.7,0.2-3.3-0.7-5-1.1c-1.1-0.2-2.1-0.5-3.2-0.9
	c0.9-0.4,1.5-1.2,1.8-2.1C115,330.2,115.7,327.4,116.4,324.6 M68.4,325.9c0.9-0.5,2-0.6,2.9-0.1c0.7,0.4,1.5,0.8,2.3,1.2
	c0.5,0.3,0.5,0.9,0.7,1.3C71.9,329,69.5,328,68.4,325.9 M145.3,326.3c0.5,0.3,1,0.7,1.3,1.2c1.7,3.3,4.2,6,6.4,9
	c-0.9,0.1-1.9,0.2-2.8,0.3c-0.2-1.4-0.9-2.7-1.8-3.8c-1.3,0-2.7-0.1-3.8,0.6c-0.8,0.8-1.1,1.9-0.9,3c0,0.4,0.1,0.8-0.1,1.1
	c-0.7,0.3-1.4,0.4-2.2,0.4C142.7,334.2,143.9,330.2,145.3,326.3 M144.8,332c0.8,0,1.7-0.1,2.5-0.1c-0.3-1-0.8-1.9-1.5-2.7
	C145.1,330.1,144.8,331,144.8,332 M126.1,327.2l1.8-0.2c-1,3.6-1.5,7.4-1.6,11.2c-0.7-0.2-1.4-0.4-2.2-0.7c0.3-1.2,0.7-2.4,1-3.6
	C125.6,331.7,125.7,329.5,126.1,327.2 M131.5,328.7c2.4-1.3,5.2-1.4,7.7-0.3c0,0.6,0,1.3,0,2c-1.5-0.3-2.5-1.8-4.1-1.8
	c-1.4,0.1-2.7,0.9-3.4,2.1c-1.1,1.7-1,3.8,0.1,5.4c1,1.2,2.5,1.8,4,1.7c0.8,0,1.8-0.2,2.2-1.1c0.5-1.2-0.2-2.5-0.6-3.7h2.8
	c-0.5,1.7-0.6,3.4-0.4,5.2c-2.5,0.5-5.2,1.2-7.7,0.1c-1.9-0.8-2.7-3-2.7-5C129.1,331.5,130,329.7,131.5,328.7 M182.4,330.6
	c0.9,0.3,1.6,0.9,2.2,1.6c0.5,0.8,0.8,1.8,0.9,2.7c0.3,1.2,1.4,2.1,1.9,3.2c1,1.5,1.5,3.5,0.4,5.1c-0.9,1.2-2.2,2.1-2.9,3.5
	c-0.5,0.9,0.1,1.8-0.2,2.7c-0.4,1.9-1.6,3.5-3.2,4.5c-1.2,0.9-2.6,1.3-4.1,1.4c0.2-1,0.8-1.9,1.7-2.5c1.5-1.1,2.7-2.6,3.5-4.3
	c-1.4,0.5-2.9,1-4.3,0.5s-1.8-2.4-1.9-3.8c-0.1-0.8-0.1-1.7,0-2.5c0.9-0.4,1.7-1.1,2.7-1c1.7,0.1,3.2,0.7,4.5,1.8
	c1.1-0.6,2.4-1.1,2.9-2.4c0.2-1.1-0.6-2-1.2-2.8c-1.6-1.7-2.7-3.8-3.2-6.1C182.1,331.6,182.2,331.1,182.4,330.6 M179.1,344.9v1.1
	c1-0.2,2.1-0.5,3.1-0.8l-0.5-0.3C180.8,344.9,179.9,344.9,179.1,344.9 M179.6,332.9c0.5,0,1.1-0.1,1.6-0.2c0.4,1.3,0.4,2.6-0.1,3.9
	c-0.6,1.2-1.7,2.2-3,2.7c0.2-0.7,0.1-1.6,0.7-2.1l0.6-0.5c-0.5-0.4-0.9-0.9-1.1-1.5C178.6,334.4,179,333.6,179.6,332.9 M202.1,335.2
	c0.2-0.4,0.6-0.7,1.1-0.9c0.5,0.9,0.6,1.9,0.2,2.8c-0.5,1-1.3,1.9-1.8,3c-0.4,0.7-1.3,1.1-2.2,1c-0.1-1.1,0.1-2.2,0.6-3.2
	C200.8,337,201.6,336.2,202.1,335.2 M79.9,336.7c0.4,0,0.8,0,1.2,0c0.2,0.9,0.6,2.1-0.4,2.7c-1.4,0.6-3,0.3-4.6,0.4
	c0.1-0.5,0.4-1,0.7-1.5c0.5,0,1.1-0.1,1.6-0.3C79,337.7,79.1,336.8,79.9,336.7 M173.6,339.7c-0.2-1,0.4-1.9,1.3-2.2
	c0.6-0.1,1.2-0.1,1.8,0c0.5,0.8,0.6,1.7,0.5,2.7c-0.4,0.8-0.9,1.5-1.4,2.2c-0.6,0.2-1.1,0.4-1.7,0.7c-0.1,1.6,0.3,3.6-1.1,4.7
	c-1.3,0.7-2.9,0.3-4.1,1.1c-1.7,1-2.2,3-3.5,4.4c-0.8,0.9-1.7,1.6-2.6,2.3c-0.9,1-1,2.4-1.5,3.5c-1.5,3.2-4.9,5.1-8.4,4.7
	c-0.8,0.1-0.3-0.7-0.2-1.1c0.5-1.1,1.8-1.5,2.8-2c1.4-0.6,2.6-1.7,3.4-3.1c-1.5-0.1-3.1,0-4.4-0.9s-1-2.6-0.6-3.9
	c0.4-1.7,2-2.8,3.7-2.5c1.6,0.1,2.7,1.6,3.8,2.6c2.4-0.9,3.9-3.1,5.2-5.2c0.5-0.9,1.1-1.7,1.8-2.4c0.7-0.3,1.3,0.2,1.9,0.5
	c0.4-0.1,0.8-0.3,1.2-0.6c0.1-0.7,0.1-1.5,0.1-2.2c0.3-0.6,0.7-1.1,1.1-1.5c0.5,0.2,0.9,0.5,1.3,0.9c0.4-0.5,0.7-1,1.1-1.5
	C174.6,340.5,173.8,340.3,173.6,339.7 M155.8,353.8c0.4,0.3,0.7,0.6,1,0.9c0.7-0.2,1.5-0.4,2.1-0.7c-0.4-0.5-1-0.9-1.7-1.2
	L155.8,353.8 M92.1,338.6c1.3-0.1,2.7,0.2,3.8,0.9c0,0.3,0,0.6,0,1c-2.3,0.4-4.6-0.1-6.8,0C89.6,339.3,90.8,338.6,92.1,338.6
	 M167.9,341.6c0.2-1.4,1.9-1.7,3-1.2c0.2,1,0,1.9-0.6,2.7c-0.4,0.4-1,0.4-1.4,0c0,0,0,0,0,0C168.3,342.8,168.1,342.1,167.9,341.6
	 M159.5,343.7c0.4-0.2,0.9-0.3,1.4-0.2c0.4,1.4-0.7,2.6-1.6,3.4c-1.3,1.2-2.9,2.2-4.5,2.8c-0.4-1.1,0-2.4,1-3.1
	C157,345.7,158.2,344.6,159.5,343.7 M163.2,343.8c0.9-0.3,1.8-0.4,2.7-0.4c0.3,0.8,0.4,1.6,0.3,2.4c-0.4,1.7-1.8,2.8-2.9,3.9
	c-0.4,0-0.9,0.1-1.3,0.2c-0.1-0.7,0.1-1.5,0.4-2.1c0.4-0.5,0.9-0.8,1.4-1.3l-1-0.5C162.6,345.3,162.7,344.5,163.2,343.8
	 M115.1,345.6c0.3-0.7,1.2-0.8,1.8-0.9c-0.2,0.8-0.4,1.5-0.5,2.3c0.8,0.2,1.6,0.5,2.2,1.1c-0.1,1-0.9,1.8-1.5,2.5
	c-1.4,0-2.8-0.1-4.1-0.1c0-0.2-0.1-0.6-0.2-0.7c0.1-0.8,1-1,1.3-1.6C114.6,347.4,114.7,346.4,115.1,345.6 M188.7,345
	c0.9,0,1.8,0.2,2.6,0.7c-0.1,0.4-0.1,0.9-0.1,1.3c-0.1,0.2-0.1,0.5-0.2,0.7c-0.7,0.2-1.5,0.2-2.2,0.4c-0.2,0.6-0.5,1.1-0.8,1.6
	c-0.8,0.2-1.6,0.2-2.3,0c-0.3-0.2-0.3-0.5-0.4-0.8c0.2-0.8,0.3-1.5,0.6-2.2c0.7,0,1.5-0.2,2.2-0.5
	C188.2,345.8,188.4,345.4,188.7,345 M142.5,347c0.4-0.4,0.9-0.7,1.4-1l1.3,0.3c0.4,0.8,0.4,1.7,0.2,2.6c-0.5,1.8-2.4,3-4.2,2.5
	c0-0.2,0-0.5,0-0.7c0.6-0.6,1.2-1.2,2-1.6c-0.3-0.2-0.5-0.5-0.8-0.6C142.4,347.9,142.4,347.4,142.5,347 M150.1,348.2
	c1.2-0.3,2.8-0.3,3.5,0.9c0.6,1.4,0,3.1-1.3,3.9c-0.8-0.8-1.6-1.8-2.9-1.5c-1.5,0.6-2.2,2.1-3,3.4c-1.5,3-2.9,6.1-5.2,8.6
	c-0.9,1.1-2.2,1.8-3.6,1.9c-1.2,0-2.4-0.7-2.9-1.8c-0.5-1.4-0.7-2.8-0.4-4.3c0.2-1.1,0.1-2.3,0.8-3.2h0.8c0.7,1.1,0.5,2.4,0.7,3.6
	c0.2,0.9,1,1.4,1.8,1.8c3.1-1.9,4.6-5.3,6.6-8.2C146.3,351.3,147.7,349,150.1,348.2 M174.2,351.2c0.4-0.5,0.8-1,1.4-1.3
	c0.8,0.9,0.5,2.2,0.1,3.2c-0.7,1.7-2.1,3-3.9,3.5c-0.1-1,0.1-2,0.5-2.9C172.9,352.9,173.6,352.1,174.2,351.2 M169.3,351.3
	c0.5-0.7,1.5-1,2.4-0.7c0.8,0.2,1.2,1,1,1.8c-0.1,0.3-0.2,0.5-0.4,0.7c-0.5,0.6-1.4,0.2-2,0.5c-0.3,0.4-0.6,0.9-0.9,1.4
	c-1-0.2-2-0.4-3-0.5c0-0.8,0.1-1.5,0.3-2.3C167.5,352,168.6,352,169.3,351.3 M106.5,357.3c1.4-0.5,3-0.2,4.5-0.3
	c0,0.5-0.1,1.1-0.3,1.6c-0.7,0.4-1.4,0.6-2.2,0.6c-1.1,0-2.4,0.5-3.4-0.2C105.2,358.3,105.8,357.7,106.5,357.3 M132.1,357.4l0.8-0.4
	c0.4,0.9,0.4,2,0,2.9c-0.4,0.7-1.3,1.1-2.1,1c-1,0-2-0.5-3.1-0.5c-1.2,0.5-2.2,1.3-3.3,1.8c-0.2-0.5-0.4-1.1-0.6-1.6
	c1.7-1,3.4-1.8,5.2-2.5C130,357.8,131.3,358.5,132.1,357.4L132.1,357.4z"/>
<g id="ALIGARH_MUSLIM_UNIVERSITY">
	<path class="st0" d="M268.6,265.3l10.8-45.1h14.5l11.4,45.1h-7.4l-2.4-9.6h-17.2l-2.4,9.6H268.6z M285.3,226.5l-5.6,22.8h14.4
		l-5.5-22.8H285.3z"/>
	<path class="st0" d="M336.9,265.3h-25.1v-45.2h7.3v38.5h17.9L336.9,265.3z"/>
	<path class="st0" d="M342.9,265.3v-45.2h7.3v45.2H342.9z"/>
	<path class="st0" d="M378.8,247.8v-6.4h12.7v22.8c-2.4,0.5-4.7,0.8-7.1,1c-3.6,0-6.2,0.5-7.8,0.5c-5.4,0.6-10.7-1.5-14.1-5.7
		c-3-5.4-4.4-11.5-3.9-17.6c-0.5-6.1,0.9-12.2,4-17.5c3.3-3.9,8.4-6,13.5-5.5c4.3,0,8.7,0.5,12.9,1.3l2.3,0.5v5.8
		c-4.7-0.7-9.5-1.1-14.3-1.1c-3.3-0.4-6.5,1-8.6,3.6c-1.9,4.1-2.7,8.6-2.3,13.1c-0.4,4.6,0.4,9.2,2.2,13.5c2.1,2.7,5.4,4.1,8.8,3.6
		c2.4-0.1,4.9-0.5,7.2-1.1v-10.7H378.8z"/>
	<path class="st0" d="M396.8,265.3l11.1-45.1h14.5l11.1,45.1h-7.4l-2.4-9.6h-17.2l-2.4,9.6H396.8z M413.5,226.2L408,249h14.4
		l-5.5-22.8H413.5z"/>
	<path class="st0" d="M447.2,249.1v16.2h-7.3v-45.2h17c10.2,0,15.2,4.7,15.2,14.3c0.5,5.4-2.4,10.6-7.3,12.9l7.4,17.9h-8l-6.7-16
		L447.2,249.1z M464.7,234.5c0-5.4-2.6-8.1-7.8-8.1h-9.8v16.3h9.9c2.2,0.2,4.3-0.6,5.8-2.2C464.1,238.8,464.8,236.7,464.7,234.5z"/>
	<path class="st0" d="M507.1,265.3v-19.7h-19.4v19.7h-7.3v-45.2h7.3v19.1h19.4v-19.1h7.3v45.2H507.1z"/>
	<path class="st0" d="M539.2,265.3v-45.2h12.7l10,35l10-35h12.7v45.2h-7.3v-37.1h-0.9l-10.7,35h-7.6l-10.6-35h-1v37.1H539.2z"/>
	<path class="st0" d="M601.8,250.7c0,5.8,3,8.7,9.2,8.7s9.2-2.9,9.2-8.7v-30.5h7.3v30.5c0.3,4.3-1.3,8.5-4.4,11.5
		c-7.5,4.8-17.2,4.8-24.7,0c-3-3.1-4.5-7.3-4.1-11.5v-30.4h7.3L601.8,250.7z"/>
	<path class="st0" d="M650.7,225.7c-5.6,0-8.4,2-8.4,5.9c-0.1,1.7,0.6,3.3,2,4.3c2.8,1.4,5.7,2.4,8.7,3.1c3.5,0.8,6.7,2.3,9.5,4.5
		c2,2.3,3,5.2,2.7,8.2c0.3,3.9-1.2,7.8-4,10.6c-3.1,2.5-7,3.7-11,3.5c-4.1-0.1-8.3-0.5-12.3-1.4l-2.4-0.5l0.8-5.8
		c4.5,0.6,9,1,13.5,1.1c5.4,0,8.2-2.4,8.2-7.2c0.1-1.6-0.6-3.2-1.9-4.1c-2.6-1.4-5.3-2.4-8.2-2.9c-3.5-0.7-6.8-2.2-9.6-4.5
		c-2.3-2.4-3.5-5.7-3.2-9c-0.2-3.5,1.3-7,4-9.2c3.2-2.2,7.1-3.3,11-3c4,0.1,8,0.5,11.9,1.1l2.3,0.4l-0.6,5.9
		C657.5,226.1,653.2,225.7,650.7,225.7z"/>
	<path class="st0" d="M698.3,265.3h-25.2v-45.2h7.3v38.5h17.9L698.3,265.3z"/>
	<path class="st0" d="M703.9,265.3v-45.2h7.3v45.2H703.9z"/>
	<path class="st0" d="M721.9,265.3v-45.2h12.7l9.8,35l10-35h12.7v45.2h-7.3v-37.1h-1l-10.6,35h-7.6l-10.6-35h-1v37.1H721.9z"/>
	<path class="st0" d="M279.4,315.6c0,5.8,3.1,8.7,9.2,8.7s9.2-2.9,9.2-8.7V285h7.4v30.4c0.4,4.3-1.1,8.5-4.1,11.6
		c-3.6,2.7-8,4-12.4,3.6c-4.4,0.3-8.8-1-12.4-3.6c-3-3.1-4.5-7.3-4.1-11.6V285h7.4L279.4,315.6z"/>
	<path class="st0" d="M315.1,329.9V285h12.7l13.5,38.5h1V285h7.3v44.9h-12.4l-14-38.5h-0.9v38.5L315.1,329.9z"/>
	<path class="st0" d="M360.2,329.9V285h7.3v44.9L360.2,329.9z"/>
	<path class="st0" d="M402.5,285h7.6l-11,44.9h-14.3L373.7,285h7.6l8.9,38.5h3.7L402.5,285z"/>
	<path class="st0" d="M416.6,329.9V285h28.3v6.3h-21v12.7h17.2v6.3h-17.2v13.1h21v6.4H416.6z"/>
	<path class="st0" d="M460.1,314v16h-7.3V285h17c10.1,0,15.2,4.7,15.2,14.3c0.6,5.5-2.3,10.8-7.4,13.1l7.4,17.6h-8l-6.7-16
		L460.1,314z M477.6,299.4c0-5.4-2.6-8.1-7.8-8.1h-9.8v16.3h9.9c2.2,0.2,4.3-0.6,5.7-2.2C477,303.7,477.7,301.5,477.6,299.4
		L477.6,299.4z"/>
	<path class="st0" d="M506.5,290.6c-5.6,0-8.4,2-8.4,5.9c-0.1,1.7,0.6,3.3,2,4.3c2.8,1.4,5.7,2.4,8.7,3.1c3.5,0.8,6.7,2.3,9.5,4.5
		c2,2.2,3,5.2,2.7,8.2c0.3,3.9-1.2,7.8-4,10.6c-3.1,2.5-7,3.7-11,3.5c-4.1-0.1-8.3-0.5-12.3-1.4l-2.4-0.4l0.7-5.9
		c4.5,0.7,9,1.1,13.5,1.1c5.4,0,8.1-2.4,8.1-7.2c0.1-1.6-0.6-3.2-1.9-4.1c-2.6-1.4-5.3-2.5-8.2-3c-3.5-0.6-6.8-2.1-9.6-4.2
		c-2.3-2.4-3.4-5.6-3.2-8.9c-0.3-3.7,1.3-7.2,4.1-9.5c3.2-2.3,7.1-3.4,11-3.1c4,0.1,8,0.5,11.9,1.2l2.3,0.3l-0.6,5.9
		C513.3,291,509.1,290.6,506.5,290.6z"/>
	<path class="st0" d="M528.7,329.9V285h7.3v44.9L528.7,329.9z"/>
	<path class="st0" d="M542.2,291.5v-6.7h32.8v6.7h-12.5v38.4H555v-38.4H542.2z"/>
	<path class="st0" d="M597.6,329.9h-7.3v-18.5L575.9,285h8.2l9.5,19.3l9.5-19.3h8.2l-14,26.4L597.6,329.9z"/>
</g>
</svg>
